<?xml version="1.0" encoding="utf-8"?>
<!-- Generator: Adobe Illustrator 23.0.0, SVG Export Plug-In . SVG Version: 6.00 Build 0)  -->
<svg version="1.1" id="Capa_1" xmlns="http://www.w3.org/2000/svg" xmlns:xlink="http://www.w3.org/1999/xlink" x="0px" y="0px"
	 viewBox="0 0 582 582" style="enable-background:new 0 0 582 582;" xml:space="preserve">
<style type="text/css">
	.st0{fill:none;stroke:#F5F5F5;stroke-width:6;stroke-linecap:round;stroke-linejoin:round;}
	.st1{fill:#9FA200;fill-opacity:0;}
	.st2{fill:none;stroke:#2E3192;stroke-width:55.037;stroke-linecap:round;stroke-linejoin:round;}
</style>
<g id="Elipse_8_2_">
	<g>
		<g>
			<g>
				<path class="st0" d="M324.1,47.1l4.6-3.6c1.6-1.2,3.1-2.3,4.7-3.4c-1.3-1.7-2.5-3.6-3.9-5.3c-1.3-1.7-2.7-3.4-4-5.1"/>
			</g>
			<g>
				<path class="st0" d="M367.1,56.9c3.4-1.8,6.9-3.5,10.5-5.2c-1.9-3.8-3.8-7.7-5.9-11.6"/>
			</g>
			<g>
				<path class="st0" d="M407.7,74.2c3.7-1.1,7.4-2.1,11.2-3.2c-0.6-2.1-1.1-4.2-1.8-6.3c-0.6-2.1-1.2-4.2-1.9-6.3"/>
			</g>
			<g>
				<path class="st0" d="M444.5,98.6c1.9-0.2,3.9-0.5,5.8-0.7l5.8-0.5c-0.2-2.1-0.4-4.3-0.6-6.5c-0.3-2.1-0.5-4.3-0.8-6.5"/>
			</g>
			<g>
				<path class="st0" d="M476.4,129.1c3.8,0.2,7.8,0.5,11.7,0.9c0.4-4.3,0.6-8.6,0.9-13"/>
			</g>
			<g>
				<path class="st0" d="M502.4,164.8c3.7,0.9,7.5,1.9,11.3,3c1.1-4.1,2.2-8.3,3.2-12.7"/>
			</g>
			<g>
				<path class="st0" d="M521.5,204.5l2.7,1.2l2.6,1.2l5.2,2.6c1.9-3.9,3.8-7.9,5.4-11.9"/>
			</g>
			<g>
				<path class="st0" d="M533.2,247.1l4.8,3.3c1.6,1.1,3.2,2.3,4.7,3.5c1.3-1.7,2.5-3.5,3.8-5.3c1.2-1.8,2.4-3.6,3.7-5.4"/>
			</g>
			<g>
				<path class="st0" d="M537.2,291c2.7,2.7,5.4,5.5,8.1,8.4c3.1-3,6.3-6,9.3-9.2"/>
			</g>
			<g>
				<path class="st0" d="M533.2,335c2.2,3.1,4.6,6.4,6.6,9.7l2.7-1.8l2.6-1.8c1.8-1.2,3.5-2.5,5.3-3.8"/>
			</g>
			<g>
				<path class="st0" d="M521.5,377.5c1.6,3.5,3.2,7,4.7,10.7c3.9-1.7,7.9-3.5,11.9-5.4"/>
			</g>
			<g>
				<path class="st0" d="M502.3,417.3c0.5,1.9,1,3.7,1.4,5.6l1.3,5.7c2.1-0.5,4.2-1,6.3-1.5l3.2-0.8l3.1-0.9"/>
			</g>
			<g>
				<path class="st0" d="M476.3,452.9l0.4,5.8c0.1,2,0.2,3.9,0.2,5.8c4.4-0.1,8.6-0.5,13-0.9"/>
			</g>
			<g>
				<path class="st0" d="M444.4,483.4c-0.4,3.8-0.9,7.7-1.4,11.6c4.2,0.6,8.5,1,12.9,1.4"/>
			</g>
			<g>
				<path class="st0" d="M407.6,507.8c-1.1,3.7-2.3,7.4-3.5,11.1c4.1,1.3,8.2,2.6,12.5,3.8"/>
			</g>
			<g>
				<path class="st0" d="M367,525.1c-1.7,3.5-3.5,6.9-5.4,10.3c1.9,1,3.8,2.1,5.8,3.1c1.9,1,3.9,1.9,5.9,2.9"/>
			</g>
			<g>
				<path class="st0" d="M324,534.9c-2.3,3.1-4.7,6.2-7.2,9.3c3.3,2.7,6.8,5.3,10.3,7.9"/>
			</g>
			<g>
				<path class="st0" d="M279.9,536.9c-1.4,1.4-2.8,2.6-4.3,3.9l-4.4,3.8c1.4,1.6,2.8,3.3,4.3,4.9l2.2,2.4l2.3,2.3"/>
			</g>
			<g>
				<path class="st0" d="M236.2,531c-1.6,1-3.3,2.1-4.9,3.1c-1.7,1-3.4,2.1-5,3c1.1,1.9,2.2,3.7,3.4,5.5c1.2,1.8,2.3,3.7,3.6,5.5"/>
			</g>
			<g>
				<path class="st0" d="M194.2,517.4c-3.5,1.4-7.2,2.8-10.9,4.2c1.5,4,3.1,8.1,4.8,12.2"/>
			</g>
			<g>
				<path class="st0" d="M155.4,496.4c-3.8,0.9-7.6,1.5-11.4,2.2c0.7,4.2,1.5,8.6,2.6,12.8"/>
			</g>
			<g>
				<path class="st0" d="M120.9,468.9c-3.8,0.1-7.8,0.3-11.7,0.1c-0.1,4.4,0.1,8.6,0.3,13"/>
			</g>
			<g>
				<path class="st0" d="M91.9,435.6c-3.8-0.6-7.6-1.2-11.5-1.9c-0.7,4.2-1.4,8.5-2,12.9"/>
			</g>
			<g>
				<path class="st0" d="M69.1,397.8c-3.6-1.3-7.2-2.6-10.9-4c-1.5,4-3,8.1-4.4,12.3"/>
			</g>
			<g>
				<path class="st0" d="M53.7,356.5c-1.7-0.9-3.4-1.9-5.1-2.9c-1.6-1-3.3-2-5-3c-1.1,1.8-2.3,3.7-3.4,5.6c-1,1.9-2.1,3.8-3.1,5.7"
					/>
			</g>
			<g>
				<path class="st0" d="M45.9,313c-3-2.4-5.9-5-8.9-7.6c-2.8,3.2-5.6,6.5-8.4,10"/>
			</g>
			<g>
				<path class="st0" d="M45.9,268.9c-2.6-2.9-5-5.9-7.4-9c-1.7,1.3-3.4,2.7-5.1,4.1c-1.7,1.4-3.3,2.8-4.9,4.3"/>
			</g>
			<g>
				<path class="st0" d="M53.7,225.5c-1.9-3.3-3.8-6.7-5.7-10.2c-3.7,2-7.5,4.2-11.3,6.4"/>
			</g>
			<g>
				<path class="st0" d="M69.2,184.1c-1.3-3.6-2.5-7.3-3.7-11c-4.1,1.3-8.2,2.7-12.4,4.3"/>
			</g>
			<g>
				<path class="st0" d="M91.9,146.3c-0.3-1.9-0.7-3.9-0.9-5.8l-0.7-5.8c-2.1,0.3-4.3,0.6-6.5,0.9c-2.2,0.3-4.3,0.7-6.4,1.1"/>
			</g>
			<g>
				<path class="st0" d="M121,113.1l0.1-5.8l0.1-3l0.2-2.9c-2.2-0.1-4.3-0.2-6.5-0.2c-2.2,0-4.3-0.1-6.5-0.1"/>
			</g>
			<g>
				<path class="st0" d="M155.4,85.5c0.7-3.8,1.6-7.6,2.5-11.4c-4.2-0.9-8.4-1.8-12.8-2.6"/>
			</g>
			<g>
				<path class="st0" d="M194.3,64.6c1.4-3.6,2.9-7.1,4.5-10.7c-2-0.9-4-1.7-6-2.5c-2-0.8-4.1-1.7-6.1-2.4"/>
			</g>
			<g>
				<path class="st0" d="M236.3,51c2-3.3,4.1-6.7,6.3-9.8c-3.6-2.5-7.2-4.7-11-6.9"/>
			</g>
			<g>
				<path class="st0" d="M280,45.1c2.6-2.8,5.2-5.7,8-8.5c-3.1-3-6.3-5.9-9.6-8.9"/>
			</g>
		</g>
	</g>
</g>
<g>
	<circle id="Elipse_8_1_" class="st1" cx="291" cy="291" r="291"/>
	<path class="st2" d="M476.8,466.8c-46.6,49.2-112.6,80-185.8,80s-139.2-30.7-185.8-80"/>
</g>
</svg>
