<?xml version="1.0" encoding="utf-8"?>
<!-- Generator: Adobe Illustrator 23.0.0, SVG Export Plug-In . SVG Version: 6.00 Build 0)  -->
<svg version="1.1" id="Capa_1" xmlns="http://www.w3.org/2000/svg" xmlns:xlink="http://www.w3.org/1999/xlink" x="0px" y="0px"
	 viewBox="0 0 456 456" style="enable-background:new 0 0 456 456;" xml:space="preserve">
<style type="text/css">
	.st0{fill:none;stroke:#F5F5F5;stroke-width:6;stroke-linecap:round;stroke-linejoin:round;}
	.st1{fill:#9FA200;fill-opacity:0;}
	.st2{fill:none;stroke:#00A99D;stroke-width:55.037;stroke-linecap:round;stroke-linejoin:round;}
</style>
<g id="Elipse_8_2_">
	<g>
		<g>
			<g>
				<path class="st0" d="M195.7,45c-3.1-2.2-6.3-4.6-9.5-6.6c2.3-3.7,4.8-7.1,7.4-10.7"/>
			</g>
			<g>
				<path class="st0" d="M154.4,57.4c-3.5-1.4-7.1-2.9-10.8-4.2c1.4-4,3-8,4.7-12.1"/>
			</g>
			<g>
				<path class="st0" d="M117,79c-3.7-0.6-7.5-1.1-11.5-1.5c0.5-4.2,1-8.6,1.8-12.9"/>
			</g>
			<g>
				<path class="st0" d="M85.7,108.6c-1.9,0.1-3.8,0.3-5.7,0.5c-1.9,0.2-3.8,0.4-5.8,0.7c-0.3-2.1-0.5-4.3-0.7-6.4
					c-0.1-1.1-0.2-2.2-0.3-3.3l-0.2-3.2"/>
			</g>
			<g>
				<path class="st0" d="M61.9,144.7c-1.8,0.6-3.7,1.1-5.5,1.8c-1.8,0.6-3.6,1.3-5.4,2c-0.8-2-1.5-4-2.2-6.1c-0.7-2.1-1.3-4.1-2-6.2
					"/>
			</g>
			<g>
				<path class="st0" d="M47.2,185.2c-3.3,1.9-6.7,4-9.8,6.2l-1.8-2.7c-0.6-0.9-1.1-1.8-1.7-2.7c-1.1-1.8-2.3-3.7-3.4-5.6"/>
			</g>
			<g>
				<path class="st0" d="M42.2,228c-2.7,2.6-5.4,5.4-8.1,8.3c-3.1-2.9-6.3-5.9-9.3-9.1"/>
			</g>
			<g>
				<path class="st0" d="M47.2,270.9c-1,1.6-2.1,3.2-3.1,4.9c-1,1.6-1.9,3.3-2.9,5c-1.9-1-3.8-2.1-5.6-3.2c-1.8-1.1-3.6-2.3-5.5-3.5
					"/>
			</g>
			<g>
				<path class="st0" d="M62,311.4c-0.6,1.8-1.3,3.6-1.9,5.5l-0.9,2.8l-0.8,2.8l-3.1-0.9l-3.1-1c-2-0.7-4.1-1.4-6.2-2.1"/>
			</g>
			<g>
				<path class="st0" d="M85.7,347.4c-0.4,3.8-0.7,7.7-0.9,11.6c-4.3-0.2-8.5-0.6-13-1"/>
			</g>
			<g>
				<path class="st0" d="M117.1,377.1c0.5,3.7,1.1,7.6,1.8,11.4c-4.2,0.7-8.5,1.4-12.8,2"/>
			</g>
			<g>
				<path class="st0" d="M154.4,398.7c0.6,1.8,1.4,3.6,2.1,5.3c0.7,1.8,1.5,3.6,2.3,5.4c-1.9,0.9-3.9,1.7-5.9,2.5l-3,1.2l-3.1,1.1"
					/>
			</g>
			<g>
				<path class="st0" d="M195.8,411c1.1,1.6,2.1,3.2,3.3,4.8c1.1,1.5,2.3,3.1,3.5,4.6c-1.7,1.3-3.4,2.6-5.2,3.9
					c-1.8,1.2-3.5,2.4-5.4,3.7"/>
			</g>
			<g>
				<path class="st0" d="M238.8,413.5c2.8,2.6,5.7,5.1,8.7,7.6c-2.7,3.2-5.6,6.5-8.6,9.8"/>
			</g>
			<g>
				<path class="st0" d="M281.3,406l2.5,1.4l2.5,1.3c1.7,0.9,3.4,1.8,5.2,2.6c-1.9,3.8-3.9,7.8-6.1,11.5"/>
			</g>
			<g>
				<path class="st0" d="M320.9,388.9c1.8,0.5,3.7,1.1,5.6,1.6c1.9,0.5,3.7,0.9,5.6,1.3c-0.5,2.1-0.9,4.2-1.5,6.3
					c-0.6,2.1-1.1,4.2-1.8,6.3"/>
			</g>
			<g>
				<path class="st0" d="M355.5,363.1c3.8,0.2,7.7,0.3,11.6,0.2c0.1,4.4-0.1,8.6-0.3,13"/>
			</g>
			<g>
				<path class="st0" d="M383.3,330.1c3.7-0.7,7.6-1.5,11.3-2.4c1.1,4.2,1.9,8.3,2.7,12.7"/>
			</g>
			<g>
				<path class="st0" d="M402.7,291.5c3.4-1.6,6.9-3.2,10.4-5c1.9,3.8,3.8,7.7,5.6,11.7"/>
			</g>
			<g>
				<path class="st0" d="M412.5,249.5c3.1-2.3,6-4.7,9-7.3c1.4,1.6,2.8,3.3,4.2,5c1.4,1.7,2.7,3.4,4,5.2"/>
			</g>
			<g>
				<path class="st0" d="M412.5,206.4c1.2-1.5,2.4-3,3.6-4.5c1.2-1.5,2.4-3.1,3.5-4.7c1.8,1.2,3.4,2.6,5.1,3.9
					c1.7,1.3,3.4,2.7,5.1,4.1"/>
			</g>
			<g>
				<path class="st0" d="M402.6,164.4c1.7-3.4,3.2-6.9,4.8-10.5c3.9,1.7,7.9,3.4,11.8,5.4"/>
			</g>
			<g>
				<path class="st0" d="M383.2,125.9l0.7-2.8l0.5-2.8c0.4-1.9,0.7-3.8,1-5.7c4.2,0.7,8.6,1.5,12.8,2.5"/>
			</g>
			<g>
				<path class="st0" d="M355.4,92.9c0-1.9,0-3.9-0.1-5.8c-0.1-1.9-0.2-3.8-0.3-5.8c2.1-0.2,4.3-0.3,6.5-0.4
					c2.1-0.1,4.3-0.1,6.5-0.1"/>
			</g>
			<g>
				<path class="st0" d="M320.9,67.1c-0.9-3.7-1.9-7.5-3.1-11.2c4.1-1.4,8.2-2.4,12.5-3.5"/>
			</g>
			<g>
				<path class="st0" d="M281.3,50c-1.8-3.3-3.6-6.8-5.6-10.2c3.7-2.2,7.4-4.2,11.4-6.3"/>
			</g>
			<g>
				<path class="st0" d="M238.8,42.5c-1.2-1.5-2.5-2.9-3.8-4.3c-1.3-1.4-2.6-2.8-4-4.2c1.5-1.5,3.1-3,4.7-4.4l2.4-2.2
					c0.8-0.7,1.6-1.4,2.5-2.1"/>
			</g>
		</g>
	</g>
</g>
<circle id="Elipse_8_1_" class="st1" cx="228" cy="228" r="228"/>
<path class="st2" d="M369.5,361.9c-35.5,37.5-85.8,60.9-141.5,60.9s-106-23.4-141.5-60.9"/>
</svg>
