<?xml version="1.0" encoding="utf-8"?>
<!-- Generator: Adobe Illustrator 23.0.0, SVG Export Plug-In . SVG Version: 6.00 Build 0)  -->
<svg version="1.1" id="Capa_1" xmlns="http://www.w3.org/2000/svg" xmlns:xlink="http://www.w3.org/1999/xlink" x="0px" y="0px"
	 viewBox="0 0 344.6 72.8" style="enable-background:new 0 0 344.6 72.8;" xml:space="preserve">
<style type="text/css">
	.st0{fill:#FFFFFF;}
	.st1{fill:#5E7476;}
	.st2{fill:#73B352;}
	.st3{fill:url(#SVGID_1_);}
</style>
<path class="st0" d="M202.7,64c0,0.9-0.7,1.6-1.6,1.6c-0.9,0-1.6-0.7-1.6-1.6s0.7-1.6,1.6-1.6C202,62.4,202.7,63.2,202.7,64"/>
<path class="st1" d="M98.8,64.2c0,0.9-0.7,1.6-1.6,1.6c-0.9,0-1.6-0.7-1.6-1.6s0.7-1.6,1.6-1.6C98.1,62.6,98.8,63.3,98.8,64.2"/>
<rect x="8.9" y="7.4" class="st1" width="2" height="59.6"/>
<path class="st1" d="M7.2,55.9V17.1h5.4v38.9H7.2z"/>
<path class="st1" d="M43.1,55.9V38.7c0-2.6-0.6-4.5-1.9-5.7c-1.3-1.2-3.3-1.8-6.1-1.8c-1.5,0-3,0.3-4.4,0.8
	c-1.5,0.6-2.7,1.4-3.8,2.4c-0.9,0.8-1.6,1.8-2.1,2.8c-0.5,1-0.7,2.1-0.7,3.2v15.4H19V27.8h5.1V33c3.1-4.1,7.2-6.1,12.4-6.1
	c3.9,0,6.8,0.9,8.8,2.7c2,1.8,3,4.5,3,8.1v18.1H43.1z"/>
<path class="st1" d="M76.4,35.2c-0.5-1.5-1.6-2.5-3.1-3.2c-1.5-0.7-3.6-1.1-6.2-1.1c-2.6,0-4.7,0.4-6.2,1.1
	c-1.5,0.7-2.3,1.7-2.3,2.9c0,1.2,0.5,2.2,1.6,2.8c1.1,0.6,3.1,1.1,6,1.6l3.6,0.5c3.2,0.5,5.6,1,7.3,1.7c1.7,0.7,2.9,1.5,3.6,2.6
	c0.7,1.1,1.1,2.4,1.1,4.1c0,5.7-4.6,8.6-13.9,8.6c-4.5,0-7.9-0.8-10.4-2.3c-2.5-1.5-4-3.8-4.5-6.8h4.8c1.1,3.4,4.4,5.1,10,5.1
	c2.9,0,5.2-0.4,6.8-1.1c1.6-0.8,2.4-1.9,2.4-3.3c0-1.2-0.6-2.2-1.7-2.8C74.2,45,72,44.4,68.9,44l-3.3-0.5c-3-0.5-5.4-1.1-7-1.7
	c-1.7-0.7-2.8-1.6-3.5-2.6c-0.7-1.1-1-2.4-1-4.1c0-2.5,1.2-4.5,3.5-6c2.3-1.4,5.6-2.1,9.7-2.1c4.1,0,7.2,0.6,9.4,1.8
	c2.2,1.2,3.7,3.2,4.5,5.9L76.4,35.2z"/>
<path class="st1" d="M107.4,55.4c-2.2,0.7-4.5,1.1-7,1.1c-3.1,0-5.4-0.7-6.8-2.2c-1.5-1.5-2.2-3.8-2.2-7.1V31.8H86v-4h5.5v-7.7h5.1
	v7.7h10v4h-10v15.8c0,3.1,1.6,4.7,4.7,4.7c1.7,0,3.5-0.3,5.3-0.9L107.4,55.4z"/>
<path class="st1" d="M135.2,55.9v-4.4c-1.7,1.8-3.6,3.1-5.6,3.9c-2.1,0.8-4.4,1.2-7.1,1.2c-3.7,0-6.5-0.7-8.4-2.2
	c-2-1.5-2.9-3.6-2.9-6.4c0-3,1.3-5.3,3.9-6.7c2.6-1.5,6.7-2.3,12.2-2.4l7.9-0.2v-1c0-2.3-0.7-4-2-5.1c-1.4-1.1-3.5-1.7-6.3-1.7
	c-2.7,0-4.8,0.3-6.3,1c-1.5,0.7-2.5,1.7-3,3.1l-4.7-0.6c1.1-5,5.9-7.5,14.2-7.5c4.4,0,7.7,0.9,9.9,2.7c2.2,1.8,3.2,4.5,3.2,8.2v18.2
	H135.2z M135.1,42.3l-7.8,0.2c-3.8,0.1-6.5,0.6-8.3,1.4c-1.7,0.8-2.6,2-2.6,3.7c0,1.6,0.6,2.8,1.9,3.6c1.3,0.8,3.1,1.3,5.5,1.3
	c1.7,0,3.3-0.3,4.9-0.8c1.5-0.5,2.9-1.3,4-2.2c1.6-1.3,2.4-3,2.4-5V42.3z"/>
<path class="st2" d="M150.2,55.9V21.8h-16.1v-4.7h37.6v4.7h-16.1v34.1H150.2z"/>
<path class="st2" d="M165.6,55.9V27.8h5.1v5.3c1.4-1.9,3-3.3,4.8-4.3c1.8-1,3.7-1.5,5.8-1.5c0.8,0,1.8,0.1,2.9,0.3l-0.6,4.5
	c-1-0.2-1.9-0.3-2.8-0.3c-1.5,0-2.9,0.2-4,0.7c-1.2,0.4-2.2,1.1-3.2,2c-1.9,1.7-2.8,3.8-2.8,6.1v15.4H165.6z"/>
<path class="st2" d="M210,55.9v-4.4c-1.7,1.8-3.6,3.1-5.6,3.9c-2.1,0.8-4.4,1.2-7.1,1.2c-3.7,0-6.5-0.7-8.4-2.2
	c-2-1.5-2.9-3.6-2.9-6.4c0-3,1.3-5.3,3.9-6.7c2.6-1.5,6.7-2.3,12.2-2.4l7.9-0.2v-1c0-2.3-0.7-4-2-5.1c-1.4-1.1-3.5-1.7-6.3-1.7
	c-2.7,0-4.8,0.3-6.3,1c-1.5,0.7-2.5,1.7-3,3.1l-4.7-0.6c1.1-5,5.9-7.5,14.2-7.5c4.4,0,7.7,0.9,9.9,2.7c2.2,1.8,3.2,4.5,3.2,8.2v18.2
	H210z M209.9,42.3l-7.8,0.2c-3.8,0.1-6.5,0.6-8.3,1.4c-1.7,0.8-2.6,2-2.6,3.7c0,1.6,0.6,2.8,1.9,3.6c1.3,0.8,3.1,1.3,5.5,1.3
	c1.7,0,3.3-0.3,4.9-0.8c1.5-0.5,2.9-1.3,4-2.2c1.6-1.3,2.4-3,2.4-5V42.3z"/>
<path class="st2" d="M246.9,55.9v-5.1c-1.2,1.9-3,3.3-5.2,4.4c-2.2,1.1-4.6,1.6-7.3,1.6c-2.8,0-5.3-0.6-7.4-1.8
	c-2.2-1.2-3.8-2.9-5.1-5.1c-1.2-2.2-1.8-4.9-1.8-7.9c0-2.9,0.6-5.5,1.8-7.8c1.2-2.3,2.9-4.1,5.2-5.4c2.2-1.3,4.9-2,7.9-2
	c5.2,0,9.1,1.8,11.9,5.4V17.1h5.1v38.9H246.9z M246.9,41.1c0-2.8-0.9-5.1-2.8-7.1c-0.9-0.9-2-1.7-3.3-2.1c-1.3-0.5-2.8-0.7-4.3-0.7
	c-3.5,0-6.2,0.9-8.1,2.8c-1.9,1.9-2.8,4.6-2.8,8.1c0,3.3,0.9,5.9,2.7,7.8c1.8,1.9,4.4,2.8,7.8,2.8c1.6,0,3-0.3,4.5-0.8
	c1.4-0.6,2.6-1.4,3.6-2.4c0.9-0.9,1.6-1.9,2-3c0.5-1.2,0.7-2.3,0.7-3.5V41.1z"/>
<path class="st2" d="M262.5,43.3c0.1,2.9,1,5.2,2.9,6.9c1.9,1.7,4.4,2.6,7.5,2.6c5.3,0,8.5-1.6,9.7-4.7h4.9
	c-1.5,5.8-6.5,8.8-14.8,8.8c-4.8,0-8.5-1.3-11.3-3.9c-2.7-2.6-4.1-6.2-4.1-10.8c0-2.9,0.6-5.6,1.9-7.8c1.3-2.3,3.1-4.1,5.4-5.4
	c2.4-1.3,5.1-2,8.2-2c4.8,0,8.5,1.2,11.1,3.7c2.6,2.5,4,6,4,10.4v2.2H262.5z M282.9,39.4c0-2.7-0.9-4.8-2.7-6.3
	c-1.7-1.5-4.2-2.2-7.5-2.2c-2.8,0-5.1,0.8-7,2.3c-1.9,1.5-2.9,3.6-3.3,6.3H282.9z"/>
<polygon class="st2" points="296,15.8 287.3,15.8 304.4,36 287.3,56.3 296,56.3 313.1,36 "/>
<g>
	<path class="st1" d="M19.1,66.6V61h5.7v1h-4.4v1.5h2.4v1h-2.4v2.1H19.1z"/>
	<path class="st1" d="M32.3,62.3c0-0.5,0.1-0.9,0.3-1.1s0.6-0.3,1.1-0.3h4.1c0.5,0,0.9,0.1,1.1,0.3c0.2,0.2,0.3,0.5,0.3,1.1v3
		c0,0.5-0.1,0.9-0.3,1.1c-0.2,0.2-0.6,0.3-1.1,0.3h-4.1c-0.5,0-0.9-0.1-1.1-0.3c-0.2-0.2-0.3-0.5-0.3-1.1V62.3z M33.6,65.6h4.3V62
		h-4.3V65.6z"/>
	<path class="st1" d="M47.9,66.6V61h4.8c0.8,0,1.3,0.4,1.3,1.1v1.3c0,0.7-0.4,1.1-1.3,1.1H52l2.6,2.1h-1.9l-2.3-2.1h-1.2v2.1H47.9z
		 M52.1,61.9h-2.9v1.6h2.9c0.2,0,0.3,0,0.4-0.1c0.1-0.1,0.2-0.2,0.2-0.4v-0.7c0-0.2-0.1-0.3-0.2-0.4C52.5,62,52.3,61.9,52.1,61.9z"
		/>
	<path class="st1" d="M62.6,66.6V61h5.7v1h-4.4v1.3h2.6v1h-2.6v1.4h4.5v1.1H62.6z"/>
	<path class="st1" d="M76,66.6l2.7-2.9L75.9,61h1.7l1.8,1.9l1.7-1.9h1.5l-2.4,2.6l3,3h-1.8l-2.1-2.2l-1.9,2.2H76z"/>
	<path class="st1" d="M115.7,62h-3.5v3.6h3.5v-1.2l1.3,0.3v0.7c0,0.5-0.1,0.9-0.3,1.1c-0.2,0.2-0.6,0.3-1.1,0.3h-3.4
		c-0.5,0-0.9-0.1-1.1-0.3c-0.2-0.2-0.3-0.5-0.3-1.1v-3c0-0.5,0.1-0.9,0.3-1.1s0.6-0.3,1.1-0.3h3.4c0.5,0,0.9,0.1,1.1,0.3
		c0.2,0.2,0.3,0.5,0.3,1.1v0.5l-1.3,0.2V62z"/>
	<path class="st1" d="M125.7,66.6V61h4.8c0.8,0,1.3,0.4,1.3,1.1v1.3c0,0.7-0.4,1.1-1.3,1.1h-0.7l2.6,2.1h-1.9l-2.3-2.1H127v2.1
		H125.7z M129.9,61.9H127v1.6h2.9c0.2,0,0.3,0,0.4-0.1c0.1-0.1,0.2-0.2,0.2-0.4v-0.7c0-0.2-0.1-0.3-0.2-0.4
		C130.3,62,130.1,61.9,129.9,61.9z"/>
	<path class="st1" d="M142,66.6v-2.5L139,61h1.7l1.9,2.2l1.9-2.2h1.5l-2.9,3.1v2.5H142z"/>
	<path class="st1" d="M153.7,66.6V61h4.8c0.8,0,1.3,0.4,1.3,1.1v1.3c0,0.7-0.4,1.1-1.3,1.1H155v2.2H153.7z M157.9,61.9H155v1.5h2.9
		c0.2,0,0.3,0,0.4-0.1c0.1-0.1,0.2-0.2,0.2-0.4v-0.6c0-0.2-0.1-0.3-0.2-0.4C158.3,62,158.1,61.9,157.9,61.9z"/>
	<path class="st1" d="M170.4,62v4.6h-1.3V62h-2.6v-1h6.5v1H170.4z"/>
	<path class="st1" d="M180.4,62.3c0-0.5,0.1-0.9,0.3-1.1s0.6-0.3,1.1-0.3h4.1c0.5,0,0.9,0.1,1.1,0.3c0.2,0.2,0.3,0.5,0.3,1.1v3
		c0,0.5-0.1,0.9-0.3,1.1c-0.2,0.2-0.6,0.3-1.1,0.3h-4.1c-0.5,0-0.9-0.1-1.1-0.3c-0.2-0.2-0.3-0.5-0.3-1.1V62.3z M181.7,65.6h4.3V62
		h-4.3V65.6z"/>
	<path class="st1" d="M216.4,66.6V61h1.1l2.6,3.4l2.6-3.4h1v5.6h-1.2v-3.5c0-0.1,0-0.3,0-0.6c-0.1,0.3-0.2,0.5-0.3,0.6l-2.1,2.8
		h-0.3l-2.1-2.8c-0.2-0.2-0.3-0.4-0.3-0.6c0,0.2,0,0.4,0,0.6v3.5H216.4z"/>
	<path class="st1" d="M232.5,66.6V61h1.3v5.6H232.5z"/>
	<path class="st1" d="M242.7,66.6V61h0.9l4,3.3c0.3,0.2,0.5,0.4,0.6,0.6c0-0.5-0.1-0.8-0.1-1v-3h1.2v5.6h-0.9l-4.1-3.5
		c-0.2-0.1-0.3-0.3-0.5-0.5c0,0.4,0.1,0.7,0.1,0.9v3H242.7z"/>
	<path class="st1" d="M258.1,66.6V61h1.3v5.6H258.1z"/>
	<path class="st1" d="M268.3,66.6V61h0.9l4,3.3c0.3,0.2,0.5,0.4,0.6,0.6c0-0.5-0.1-0.8-0.1-1v-3h1.2v5.6H274l-4.1-3.5
		c-0.2-0.1-0.3-0.3-0.5-0.5c0,0.4,0.1,0.7,0.1,0.9v3H268.3z"/>
	<path class="st1" d="M289,62h-4.1v3.6h4.1v-1.3h-2.1v-1h3.4v1.9c0,0.5-0.1,0.9-0.3,1.1c-0.2,0.2-0.6,0.3-1.1,0.3H285
		c-0.5,0-0.9-0.1-1.1-0.3c-0.2-0.2-0.3-0.5-0.3-1.1v-3c0-0.5,0.1-0.9,0.3-1.1s0.6-0.3,1.1-0.3h3.9c0.5,0,0.9,0.1,1.1,0.3
		c0.2,0.2,0.3,0.5,0.3,1v0.1l-1.3,0.2V62z"/>
</g>
<path class="st1" d="M202.7,64c0,0.9-0.7,1.6-1.6,1.6c-0.9,0-1.6-0.7-1.6-1.6s0.7-1.6,1.6-1.6C202,62.4,202.7,63.2,202.7,64"/>
<path class="st1" d="M98.8,64.2c0,0.9-0.7,1.6-1.6,1.6c-0.9,0-1.6-0.7-1.6-1.6s0.7-1.6,1.6-1.6C98.1,62.6,98.8,63.3,98.8,64.2"/>
<rect x="8.9" y="7.4" class="st1" width="2" height="59.6"/>
<path class="st1" d="M7.2,55.9V17.1h5.4v38.9H7.2z"/>
<path class="st1" d="M43.1,55.9V38.7c0-2.6-0.6-4.5-1.9-5.7c-1.3-1.2-3.3-1.8-6.1-1.8c-1.5,0-3,0.3-4.4,0.8
	c-1.5,0.6-2.7,1.4-3.8,2.4c-0.9,0.8-1.6,1.8-2.1,2.8c-0.5,1-0.7,2.1-0.7,3.2v15.4H19V27.8h5.1V33c3.1-4.1,7.2-6.1,12.4-6.1
	c3.9,0,6.8,0.9,8.8,2.7c2,1.8,3,4.5,3,8.1v18.1H43.1z"/>
<path class="st1" d="M76.4,35.2c-0.5-1.5-1.6-2.5-3.1-3.2c-1.5-0.7-3.6-1.1-6.2-1.1c-2.6,0-4.7,0.4-6.2,1.1
	c-1.5,0.7-2.3,1.7-2.3,2.9c0,1.2,0.5,2.2,1.6,2.8c1.1,0.6,3.1,1.1,6,1.6l3.6,0.5c3.2,0.5,5.6,1,7.3,1.7c1.7,0.7,2.9,1.5,3.6,2.6
	c0.7,1.1,1.1,2.4,1.1,4.1c0,5.7-4.6,8.6-13.9,8.6c-4.5,0-7.9-0.8-10.4-2.3c-2.5-1.5-4-3.8-4.5-6.8h4.8c1.1,3.4,4.4,5.1,10,5.1
	c2.9,0,5.2-0.4,6.8-1.1c1.6-0.8,2.4-1.9,2.4-3.3c0-1.2-0.6-2.2-1.7-2.8C74.2,45,72,44.4,68.9,44l-3.3-0.5c-3-0.5-5.4-1.1-7-1.7
	c-1.7-0.7-2.8-1.6-3.5-2.6c-0.7-1.1-1-2.4-1-4.1c0-2.5,1.2-4.5,3.5-6c2.3-1.4,5.6-2.1,9.7-2.1c4.1,0,7.2,0.6,9.4,1.8
	c2.2,1.2,3.7,3.2,4.5,5.9L76.4,35.2z"/>
<path class="st1" d="M107.4,55.4c-2.2,0.7-4.5,1.1-7,1.1c-3.1,0-5.4-0.7-6.8-2.2c-1.5-1.5-2.2-3.8-2.2-7.1V31.8H86v-4h5.5v-7.7h5.1
	v7.7h10v4h-10v15.8c0,3.1,1.6,4.7,4.7,4.7c1.7,0,3.5-0.3,5.3-0.9L107.4,55.4z"/>
<path class="st1" d="M135.2,55.9v-4.4c-1.7,1.8-3.6,3.1-5.6,3.9c-2.1,0.8-4.4,1.2-7.1,1.2c-3.7,0-6.5-0.7-8.4-2.2
	c-2-1.5-2.9-3.6-2.9-6.4c0-3,1.3-5.3,3.9-6.7c2.6-1.5,6.7-2.3,12.2-2.4l7.9-0.2v-1c0-2.3-0.7-4-2-5.1c-1.4-1.1-3.5-1.7-6.3-1.7
	c-2.7,0-4.8,0.3-6.3,1c-1.5,0.7-2.5,1.7-3,3.1l-4.7-0.6c1.1-5,5.9-7.5,14.2-7.5c4.4,0,7.7,0.9,9.9,2.7c2.2,1.8,3.2,4.5,3.2,8.2v18.2
	H135.2z M135.1,42.3l-7.8,0.2c-3.8,0.1-6.5,0.6-8.3,1.4c-1.7,0.8-2.6,2-2.6,3.7c0,1.6,0.6,2.8,1.9,3.6c1.3,0.8,3.1,1.3,5.5,1.3
	c1.7,0,3.3-0.3,4.9-0.8c1.5-0.5,2.9-1.3,4-2.2c1.6-1.3,2.4-3,2.4-5V42.3z"/>
<path class="st2" d="M150.2,55.9V21.8h-16.1v-4.7h37.6v4.7h-16.1v34.1H150.2z"/>
<path class="st2" d="M165.6,55.9V27.8h5.1v5.3c1.4-1.9,3-3.3,4.8-4.3c1.8-1,3.7-1.5,5.8-1.5c0.8,0,1.8,0.1,2.9,0.3l-0.6,4.5
	c-1-0.2-1.9-0.3-2.8-0.3c-1.5,0-2.9,0.2-4,0.7c-1.2,0.4-2.2,1.1-3.2,2c-1.9,1.7-2.8,3.8-2.8,6.1v15.4H165.6z"/>
<path class="st2" d="M210,55.9v-4.4c-1.7,1.8-3.6,3.1-5.6,3.9c-2.1,0.8-4.4,1.2-7.1,1.2c-3.7,0-6.5-0.7-8.4-2.2
	c-2-1.5-2.9-3.6-2.9-6.4c0-3,1.3-5.3,3.9-6.7c2.6-1.5,6.7-2.3,12.2-2.4l7.9-0.2v-1c0-2.3-0.7-4-2-5.1c-1.4-1.1-3.5-1.7-6.3-1.7
	c-2.7,0-4.8,0.3-6.3,1c-1.5,0.7-2.5,1.7-3,3.1l-4.7-0.6c1.1-5,5.9-7.5,14.2-7.5c4.4,0,7.7,0.9,9.9,2.7c2.2,1.8,3.2,4.5,3.2,8.2v18.2
	H210z M209.9,42.3l-7.8,0.2c-3.8,0.1-6.5,0.6-8.3,1.4c-1.7,0.8-2.6,2-2.6,3.7c0,1.6,0.6,2.8,1.9,3.6c1.3,0.8,3.1,1.3,5.5,1.3
	c1.7,0,3.3-0.3,4.9-0.8c1.5-0.5,2.9-1.3,4-2.2c1.6-1.3,2.4-3,2.4-5V42.3z"/>
<path class="st2" d="M246.9,55.9v-5.1c-1.2,1.9-3,3.3-5.2,4.4c-2.2,1.1-4.6,1.6-7.3,1.6c-2.8,0-5.3-0.6-7.4-1.8
	c-2.2-1.2-3.8-2.9-5.1-5.1c-1.2-2.2-1.8-4.9-1.8-7.9c0-2.9,0.6-5.5,1.8-7.8c1.2-2.3,2.9-4.1,5.2-5.4c2.2-1.3,4.9-2,7.9-2
	c5.2,0,9.1,1.8,11.9,5.4V17.1h5.1v38.9H246.9z M246.9,41.1c0-2.8-0.9-5.1-2.8-7.1c-0.9-0.9-2-1.7-3.3-2.1c-1.3-0.5-2.8-0.7-4.3-0.7
	c-3.5,0-6.2,0.9-8.1,2.8c-1.9,1.9-2.8,4.6-2.8,8.1c0,3.3,0.9,5.9,2.7,7.8c1.8,1.9,4.4,2.8,7.8,2.8c1.6,0,3-0.3,4.5-0.8
	c1.4-0.6,2.6-1.4,3.6-2.4c0.9-0.9,1.6-1.9,2-3c0.5-1.2,0.7-2.3,0.7-3.5V41.1z"/>
<path class="st2" d="M262.5,43.3c0.1,2.9,1,5.2,2.9,6.9c1.9,1.7,4.4,2.6,7.5,2.6c5.3,0,8.5-1.6,9.7-4.7h4.9
	c-1.5,5.8-6.5,8.8-14.8,8.8c-4.8,0-8.5-1.3-11.3-3.9c-2.7-2.6-4.1-6.2-4.1-10.8c0-2.9,0.6-5.6,1.9-7.8c1.3-2.3,3.1-4.1,5.4-5.4
	c2.4-1.3,5.1-2,8.2-2c4.8,0,8.5,1.2,11.1,3.7c2.6,2.5,4,6,4,10.4v2.2H262.5z M282.9,39.4c0-2.7-0.9-4.8-2.7-6.3
	c-1.7-1.5-4.2-2.2-7.5-2.2c-2.8,0-5.1,0.8-7,2.3c-1.9,1.5-2.9,3.6-3.3,6.3H282.9z"/>
<g>
	<linearGradient id="SVGID_1_" gradientUnits="userSpaceOnUse" x1="323.4279" y1="65.6225" x2="323.4279" y2="21.8866">
		<stop  offset="0" style="stop-color:#6F4696"/>
		<stop  offset="0.1238" style="stop-color:#6C4492"/>
		<stop  offset="0.2406" style="stop-color:#633D87"/>
		<stop  offset="0.3547" style="stop-color:#553274"/>
		<stop  offset="0.4664" style="stop-color:#402259"/>
		<stop  offset="0.5347" style="stop-color:#311645"/>
		<stop  offset="0.5893" style="stop-color:#3F2157"/>
		<stop  offset="0.6902" style="stop-color:#543173"/>
		<stop  offset="0.7922" style="stop-color:#633D86"/>
		<stop  offset="0.8951" style="stop-color:#6C4492"/>
		<stop  offset="1" style="stop-color:#6F4696"/>
	</linearGradient>
	<polygon class="st3" points="335,21.9 326.4,21.9 309.3,42.1 328.9,65.6 337.6,65.6 318,42.1 	"/>
	<polygon class="st2" points="296,15.8 287.3,15.8 304.4,36 287.3,56.3 296,56.3 313.1,36 	"/>
</g>
</svg>
