<?xml version="1.0" encoding="utf-8"?>
<!-- Generator: Adobe Illustrator 23.0.0, SVG Export Plug-In . SVG Version: 6.00 Build 0)  -->
<svg version="1.1" id="Capa_1" xmlns="http://www.w3.org/2000/svg" xmlns:xlink="http://www.w3.org/1999/xlink" x="0px" y="0px"
	 viewBox="0 0 457.7 457.7" style="enable-background:new 0 0 457.7 457.7;" xml:space="preserve">
<style type="text/css">
	.st0{fill:#26DE81;}
</style>
<path class="st0" d="M439.5,167.1V55.8c0-17.8-14.5-32.3-32.3-32.3H32.3C14.5,23.5,0,38,0,55.8v226.6c0,17.8,14.5,32.3,32.3,32.3
	h106.2l-12.2,13.1h-18.2c-4.1,0-7.5,3.4-7.5,7.5s3.4,7.5,7.5,7.5h104.4v72.3c0,10.4,8.5,19,19,19h80.6c10.4,0,19-8.5,19-19V400H432
	c14.2,0,25.7-11.5,25.7-25.7V191.7C457.7,180.1,450,170.3,439.5,167.1L439.5,167.1z M442.7,191.7v2H270.2v-2
	c0-5.9,4.8-10.7,10.7-10.7H432C437.9,181,442.7,185.8,442.7,191.7z M312.1,255h-41.9v-46.3h172.5v148.5H331.1V274
	C331.1,263.5,322.5,255,312.1,255L312.1,255z M316.1,283.8h-88.5V274c0-2.2,1.8-4,4-4h80.6c2.2,0,4,1.8,4,4L316.1,283.8L316.1,283.8
	z M424.5,63.3V166H280.9c-14.2,0-25.7,11.5-25.7,25.7V255h-23.7c-10.4,0-18.9,8.5-18.9,18.9H15V63.3H424.5L424.5,63.3z M227.5,298.8
	H316v91.5h-88.5V298.8z M32.3,38.5h374.9c6.9,0,12.8,4,15.6,9.8h-406C19.5,42.5,25.4,38.5,32.3,38.5L32.3,38.5z M16.3,289h196.2
	v10.8H32.3C25.1,299.8,18.8,295.3,16.3,289z M146.9,327.9l12.2-13.1h53.5v13.1H146.9z M312.1,419.1h-80.6c-2.2,0-4-1.8-4-4v-9.9H316
	v9.9C316,417.4,314.3,419.1,312.1,419.1z M432,385H331v-12.8h111.6v2C442.7,380.2,437.9,385,432,385z"/>
</svg>
