<?xml version="1.0" encoding="utf-8"?>
<!-- Generator: Adobe Illustrator 23.0.0, SVG Export Plug-In . SVG Version: 6.00 Build 0)  -->
<svg version="1.1" id="Capa_1" xmlns="http://www.w3.org/2000/svg" xmlns:xlink="http://www.w3.org/1999/xlink" x="0px" y="0px"
	 viewBox="0 0 526 496" style="enable-background:new 0 0 526 496;" xml:space="preserve">
<style type="text/css">
	.st0{fill:#00A99D;}
</style>
<path class="st0" d="M75.9,253.8H14.6c-4.2,0-7.6,3.4-7.6,7.6v220.2c0,4.2,3.4,7.6,7.6,7.6h61.3c4.2,0,7.6-3.4,7.6-7.6v-69.5
	c0-4.2-3.4-7.6-7.6-7.6s-7.6,3.4-7.6,7.6V474H22.2V269h46.1v117.8c0,4.2,3.4,7.6,7.6,7.6s7.6-3.4,7.6-7.6V261.4
	C83.5,257.2,80.1,253.8,75.9,253.8z"/>
<path class="st0" d="M184.8,324.6h-61.3c-4.2,0-7.6,3.4-7.6,7.6v149.4c0,4.2,3.4,7.6,7.6,7.6h61.3c4.2,0,7.6-3.4,7.6-7.6V332.2
	C192.4,328,189,324.6,184.8,324.6z M177.2,474h-46.1V339.8h46.1V474z"/>
<path class="st0" d="M293.7,206.6h-61.3c-4.2,0-7.6,3.4-7.6,7.6v267.4c0,4.2,3.4,7.6,7.6,7.6h61.3c4.2,0,7.6-3.4,7.6-7.6V214.2
	C301.3,210,297.9,206.6,293.7,206.6z M286.1,474H240V221.8h46.1V474z"/>
<path class="st0" d="M402.5,242h-61.3c-4.2,0-7.6,3.4-7.6,7.6v232c0,4.2,3.4,7.6,7.6,7.6h61.3c4.2,0,7.6-3.4,7.6-7.6v-232
	C410.1,245.4,406.7,242,402.5,242z M394.9,474h-46.1V257.2h46.1V474z"/>
<path class="st0" d="M511.4,135.9h-61.3c-4.2,0-7.6,3.4-7.6,7.6v100.4c0,4.2,3.4,7.6,7.6,7.6s7.6-3.4,7.6-7.6v-92.8h46.1V474h-46.1
	V269.2c0-4.2-3.4-7.6-7.6-7.6s-7.6,3.4-7.6,7.6v212.4c0,4.2,3.4,7.6,7.6,7.6h61.3c4.2,0,7.6-3.4,7.6-7.6V143.5
	C519,139.3,515.6,135.9,511.4,135.9z"/>
<path class="st0" d="M459.2,76.9c6.1,4.2,13.6,6.7,21.5,6.7c21.1,0,38.3-17.2,38.3-38.3S501.8,7,480.7,7s-38.3,17.2-38.3,38.3
	c0,7.6,2.3,14.7,6.1,20.7l-55.2,53.8c-6.1-4.2-13.6-6.7-21.5-6.7c-14.3,0-26.7,7.8-33.3,19.4L301,120.4c0.2-1.4,0.3-2.9,0.3-4.4
	c0-21.1-17.2-38.3-38.3-38.3c-21.1,0-38.3,17.2-38.3,38.3c0,8.4,2.7,16.1,7.3,22.4l-58,62.8c-5.8-3.5-12.6-5.6-19.8-5.6
	c-10.7,0-20.3,4.4-27.3,11.5l-46-29.9c1.7-4.4,2.7-9.1,2.7-14.1c0-21.1-17.2-38.3-38.3-38.3C24.2,124.9,7,142.1,7,163.2
	s17.2,38.3,38.3,38.3c10.7,0,20.3-4.4,27.3-11.5l46,29.9c-1.7,4.4-2.7,9.1-2.7,14.1c0,21.1,17.2,38.3,38.3,38.3s38.3-17.2,38.3-38.3
	c0-8.4-2.7-16.1-7.3-22.4l58-62.8c5.8,3.5,12.6,5.6,19.8,5.6c14.3,0,26.7-7.8,33.3-19.4l37.6,12.2c-0.2,1.4-0.3,2.9-0.3,4.4
	c0,21.1,17.2,38.3,38.3,38.3s38.3-17.2,38.3-38.3c0-7.6-2.3-14.7-6.1-20.7L459.2,76.9z M45.3,186.3c-12.7,0-23.1-10.3-23.1-23.1
	s10.3-23.1,23.1-23.1s23.1,10.3,23.1,23.1S58,186.3,45.3,186.3z M154.1,257c-12.7,0-23.1-10.3-23.1-23.1s10.3-23.1,23.1-23.1
	s23.1,10.3,23.1,23.1S166.8,257,154.1,257z M263,139.1c-12.7,0-23.1-10.3-23.1-23.1s10.4-23,23.1-23s23.1,10.3,23.1,23.1
	S275.7,139.1,263,139.1z M480.7,22.2c12.7,0,23.1,10.3,23.1,23.1s-10.3,23.1-23.1,23.1s-23-10.4-23-23.1S468,22.2,480.7,22.2z
	 M371.9,174.5c-12.7,0-23.1-10.3-23.1-23.1s10.3-23.1,23.1-23.1s23.1,10.3,23.1,23.1S384.6,174.5,371.9,174.5z"/>
</svg>
