<svg xmlns="http://www.w3.org/2000/svg" width="26.432" height="17.957" viewBox="0 0 26.432 17.957">
  <path id="tw" d="M313.365,9049.641a.155.155,0,0,1-.05-.042,4.867,4.867,0,0,0-3.486-1.219l-.041-.087a.029.029,0,0,1,.025-.009,4.248,4.248,0,0,0,2.142-.812c.075-.233-.015-.361-.28-.394a7.483,7.483,0,0,0-1.672.376c.635-.376.882-.64.741-.777a3.377,3.377,0,0,0-2.01.9c.264-.418.363-.644.3-.682a5.692,5.692,0,0,0-.89.7,13.528,13.528,0,0,0-1.294,1.535l-.016.04a13.234,13.234,0,0,0-1.8,3.872l-.132.1-.025.022a6.632,6.632,0,0,0-1.854-1.5,22.314,22.314,0,0,0-3.049-1.5,26.93,26.93,0,0,0-3.881-1.512,3.585,3.585,0,0,0,2.134,3.231v.022a4.921,4.921,0,0,0-1.459.2q.136,1.89,2.884,2.61l-.009.023a2.188,2.188,0,0,0-1.771.675,3.227,3.227,0,0,0,3.206,1.575,2.164,2.164,0,0,0-.7.482.948.948,0,0,0-.28.963,1.8,1.8,0,0,0,1.8.773h0l.049.055c-.008.009-.016.015-.025.024a6.918,6.918,0,0,1-5.463,1.96l-.033.017a7.136,7.136,0,0,1-4.2-1.745,12.9,12.9,0,0,0,6.015,4.4,15.292,15.292,0,0,0,8.544.191h.049a13.608,13.608,0,0,0,7.028-4.554,8.9,8.9,0,0,0,1.673-3.454,3.566,3.566,0,0,0,3.123-1.158l-.016-.024a6.693,6.693,0,0,1-2.81-.15v-.146c0-.008,0-.008.009,0,1.524-.161,2.422-.618,2.711-1.374a4.553,4.553,0,0,1-3.148.033A6.162,6.162,0,0,0,313.365,9049.641Z" transform="translate(-292.222 -9046.678)" fill="#fff"/>
</svg>
