<svg xmlns="http://www.w3.org/2000/svg" width="283" height="50.241" viewBox="0 0 283 50.241">
  <g id="Logo" transform="translate(-80 -53.345)">
    <g id="logo-2" data-name="logo" transform="translate(80 48)">
      <g id="Objeto_inteligente_vectorial" data-name="Objeto inteligente vectorial" transform="translate(-83.546 -51.113)">
        <path id="Trazado_2674" data-name="Trazado 2674" d="M250.982,104.2a1.363,1.363,0,1,1-1.362-1.341,1.352,1.352,0,0,1,1.362,1.341" fill="#fff"/>
        <path id="Trazado_2675" data-name="Trazado 2675" d="M162,104.362a1.363,1.363,0,1,1-1.363-1.341A1.352,1.352,0,0,1,162,104.362" fill="#fff"/>
        <rect id="Rect치ngulo_185" data-name="Rect치ngulo 185" width="1.679" height="50.241" transform="translate(85.015 56.457)" fill="#fff"/>
        <path id="Trazado_2676" data-name="Trazado 2676" d="M83.546,97.375V64.623h4.617V97.375Z" fill="#fff"/>
        <path id="Trazado_2677" data-name="Trazado 2677" d="M114.266,97.375V82.88q0-3.3-1.608-4.794t-5.2-1.491a10.723,10.723,0,0,0-3.8.711,9.527,9.527,0,0,0-3.241,1.995,7.35,7.35,0,0,0-1.772,2.363,6.412,6.412,0,0,0-.606,2.729V97.375H93.657V73.659h4.337v4.4a12.693,12.693,0,0,1,10.584-5.138q4.988,0,7.53,2.317T118.65,82.1V97.375Z" fill="#fff"/>
        <path id="Trazado_2678" data-name="Trazado 2678" d="M142.849,79.9a4.859,4.859,0,0,0-2.634-2.729,15.973,15.973,0,0,0-10.608.023q-1.958.918-1.958,2.477a2.526,2.526,0,0,0,1.376,2.34,16.531,16.531,0,0,0,5.152,1.33l3.077.459a29.9,29.9,0,0,1,6.272,1.445,6.432,6.432,0,0,1,3.077,2.179,5.977,5.977,0,0,1,.909,3.44q0,7.249-11.936,7.247-5.735,0-8.906-1.9a8.055,8.055,0,0,1-3.87-5.757h4.15q1.352,4.267,8.533,4.266a14.257,14.257,0,0,0,5.852-.963A3.011,3.011,0,0,0,143.408,91a2.5,2.5,0,0,0-1.492-2.339,19.714,19.714,0,0,0-5.549-1.376l-2.844-.413a27.433,27.433,0,0,1-6.038-1.468,6.313,6.313,0,0,1-3.008-2.225,6.119,6.119,0,0,1-.886-3.417,5.6,5.6,0,0,1,3.008-5.023q3.007-1.812,8.323-1.812,5.221,0,8.043,1.514a8.058,8.058,0,0,1,3.894,4.954Z" fill="#fff"/>
        <path id="Trazado_2679" data-name="Trazado 2679" d="M169.379,96.962a19.031,19.031,0,0,1-5.968.917q-3.964,0-5.828-1.88t-1.866-5.963V77.053h-4.709V73.659h4.709V67.192H160.1v6.468h8.579v3.394H160.1V90.4q0,3.946,4.056,3.945a14.711,14.711,0,0,0,4.522-.734Z" fill="#fff"/>
        <path id="Trazado_2680" data-name="Trazado 2680" d="M193.2,97.375V93.66a13.739,13.739,0,0,1-4.826,3.279,16.613,16.613,0,0,1-6.085,1.032q-4.71,0-7.227-1.881a6.3,6.3,0,0,1-2.518-5.367,6.076,6.076,0,0,1,3.334-5.665q3.333-1.857,10.468-2.041l6.76-.184v-.825a5.22,5.22,0,0,0-1.748-4.335q-1.748-1.4-5.431-1.4a14.1,14.1,0,0,0-5.386.826,4.452,4.452,0,0,0-2.587,2.614l-4.01-.5q1.444-6.284,12.169-6.285,5.689,0,8.463,2.248t2.774,6.881V97.375Zm-.093-11.468-6.714.184a19.75,19.75,0,0,0-7.087,1.147,3.3,3.3,0,0,0-2.238,3.119A3.431,3.431,0,0,0,178.7,93.43a8.693,8.693,0,0,0,4.709,1.055,13.033,13.033,0,0,0,4.173-.665,10.619,10.619,0,0,0,3.427-1.858,5.178,5.178,0,0,0,2.1-4.174Z" fill="#fff"/>
        <path id="Trazado_2681" data-name="Trazado 2681" d="M206.044,97.375V68.614h-13.8V64.623h32.219v3.991h-13.8V97.375Z" fill="#fff"/>
        <path id="Trazado_2682" data-name="Trazado 2682" d="M219.22,97.375V73.659h4.336v4.449a12.42,12.42,0,0,1,4.08-3.623,10.338,10.338,0,0,1,4.965-1.239,17.106,17.106,0,0,1,2.519.229l-.513,3.761a13.887,13.887,0,0,0-2.378-.229,9.943,9.943,0,0,0-3.45.55,8.392,8.392,0,0,0-2.752,1.7,6.747,6.747,0,0,0-2.424,5.138V97.375Z" fill="#fff"/>
        <path id="Trazado_2683" data-name="Trazado 2683" d="M257.268,97.375V93.66a13.754,13.754,0,0,1-4.826,3.279,16.619,16.619,0,0,1-6.085,1.032q-4.711,0-7.227-1.881a6.3,6.3,0,0,1-2.518-5.367,6.076,6.076,0,0,1,3.333-5.665q3.333-1.857,10.468-2.041l6.761-.184v-.825a5.22,5.22,0,0,0-1.748-4.335q-1.749-1.4-5.432-1.4a14.1,14.1,0,0,0-5.385.826,4.455,4.455,0,0,0-2.588,2.614l-4.01-.5q1.446-6.284,12.17-6.285,5.687,0,8.462,2.248t2.775,6.881V97.375Zm-.093-11.468-6.714.184a19.743,19.743,0,0,0-7.087,1.147,3.3,3.3,0,0,0-2.238,3.119,3.431,3.431,0,0,0,1.632,3.073,8.7,8.7,0,0,0,4.709,1.055,13.033,13.033,0,0,0,4.173-.665,10.623,10.623,0,0,0,3.428-1.858,5.178,5.178,0,0,0,2.1-4.174Z" fill="#fff"/>
        <path id="Trazado_2684" data-name="Trazado 2684" d="M288.834,97.375V93.063a10.82,10.82,0,0,1-4.43,3.692,14.363,14.363,0,0,1-6.248,1.353,13.248,13.248,0,0,1-6.365-1.49,10.625,10.625,0,0,1-4.336-4.312,13.464,13.464,0,0,1-1.562-6.629,13.742,13.742,0,0,1,1.538-6.559,11.2,11.2,0,0,1,4.43-4.541,13.388,13.388,0,0,1,6.761-1.652q6.668,0,10.164,4.587V64.623h4.384V97.375Zm0-12.523a8.22,8.22,0,0,0-2.424-5.963,7.57,7.57,0,0,0-2.868-1.812,10.763,10.763,0,0,0-3.707-.619q-4.523,0-6.924,2.34t-2.4,6.834a8.192,8.192,0,0,0,9,8.945,10.4,10.4,0,0,0,3.823-.711,9.134,9.134,0,0,0,3.124-2A7.965,7.965,0,0,0,288.2,89.3a7.5,7.5,0,0,0,.63-2.982Z" fill="#fff"/>
        <path id="Trazado_2685" data-name="Trazado 2685" d="M302.215,86.733a7.714,7.714,0,0,0,2.494,5.825,9.306,9.306,0,0,0,6.459,2.156q6.759,0,8.3-3.991h4.2q-1.958,7.385-12.682,7.385-6.155,0-9.651-3.3t-3.5-9.083a13.348,13.348,0,0,1,1.609-6.6,11.439,11.439,0,0,1,4.639-4.541,14.481,14.481,0,0,1,7.041-1.652q6.108,0,9.512,3.142t3.4,8.784v1.881Zm17.531-3.257a6.69,6.69,0,0,0-2.285-5.321,9.669,9.669,0,0,0-6.387-1.881,9.174,9.174,0,0,0-5.968,1.927,7.734,7.734,0,0,0-2.8,5.275Z" fill="#fff"/>
        <path id="Trazado_2686" data-name="Trazado 2686" d="M330.935,63.519H323.5l14.62,17.068L323.5,97.655h7.437l14.62-17.068Z" fill="#fff"/>
        <g id="Grupo_1585" data-name="Grupo 1585">
          <path id="Trazado_2687" data-name="Trazado 2687" d="M93.714,106.368v-4.735h4.869v.827h-3.75v1.247h2.023v.863H94.833v1.8Z" fill="#fff"/>
          <path id="Trazado_2688" data-name="Trazado 2688" d="M104.99,102.754a1.194,1.194,0,0,1,.252-.89,1.427,1.427,0,0,1,.942-.23h3.544a1.425,1.425,0,0,1,.941.23,1.194,1.194,0,0,1,.252.89v2.5a1.194,1.194,0,0,1-.252.89,1.426,1.426,0,0,1-.941.229h-3.544a1.427,1.427,0,0,1-.942-.229,1.194,1.194,0,0,1-.252-.89Zm1.12,2.726H109.8v-3H106.11Z" fill="#fff"/>
          <path id="Trazado_2689" data-name="Trazado 2689" d="M118.4,106.368v-4.735h4.122q1.083,0,1.083.918v1.111q0,.918-1.083.917h-.634l2.22,1.789h-1.6l-1.94-1.789H119.5v1.789Zm3.619-3.927H119.5v1.331h2.518a.836.836,0,0,0,.364-.055.345.345,0,0,0,.14-.324v-.572a.343.343,0,0,0-.14-.324A.831.831,0,0,0,122.02,102.441Z" fill="#fff"/>
          <path id="Trazado_2690" data-name="Trazado 2690" d="M131,106.368v-4.735h4.924v.807h-3.805V103.5h2.22v.807h-2.22v1.175h3.852v.889Z" fill="#fff"/>
          <path id="Trazado_2691" data-name="Trazado 2691" d="M142.428,106.368l2.285-2.431-2.322-2.3h1.483l1.539,1.606,1.464-1.606h1.287l-2.1,2.175,2.593,2.56h-1.52l-1.763-1.835-1.623,1.835Z" fill="#fff"/>
          <path id="Trazado_2692" data-name="Trazado 2692" d="M176.479,102.478h-3.021v3h3.021V104.46l1.119.229v.56a1.191,1.191,0,0,1-.252.89,1.424,1.424,0,0,1-.941.229h-2.872a1.429,1.429,0,0,1-.942-.229,1.194,1.194,0,0,1-.252-.89v-2.5a1.194,1.194,0,0,1,.252-.89,1.428,1.428,0,0,1,.942-.23H176.4a1.424,1.424,0,0,1,.941.23,1.191,1.191,0,0,1,.252.89v.45l-1.119.174Z" fill="#fff"/>
          <path id="Trazado_2693" data-name="Trazado 2693" d="M185.032,106.368v-4.735h4.122q1.082,0,1.082.918v1.111q0,.918-1.082.917h-.634l2.22,1.789h-1.6l-1.94-1.789h-1.063v1.789Zm3.619-3.927h-2.518v1.331h2.518a.839.839,0,0,0,.364-.055.345.345,0,0,0,.14-.324v-.572a.343.343,0,0,0-.14-.324A.833.833,0,0,0,188.65,102.441Z" fill="#fff"/>
          <path id="Trazado_2694" data-name="Trazado 2694" d="M198.976,106.368v-2.119l-2.5-2.616h1.492l1.651,1.818,1.659-1.818h1.316l-2.49,2.588v2.147Z" fill="#fff"/>
          <path id="Trazado_2695" data-name="Trazado 2695" d="M209.02,106.368v-4.735h4.122q1.082,0,1.082.918v1.055q0,.919-1.082.918H210.12v1.844Zm3.619-3.927H210.12v1.276h2.519a.839.839,0,0,0,.364-.056.351.351,0,0,0,.14-.326v-.512a.349.349,0,0,0-.14-.325A.836.836,0,0,0,212.639,102.441Z" fill="#fff"/>
          <path id="Trazado_2696" data-name="Trazado 2696" d="M223.309,102.478v3.89H222.19v-3.89h-2.211v-.844h5.55v.844Z" fill="#fff"/>
          <path id="Trazado_2697" data-name="Trazado 2697" d="M231.918,102.754a1.194,1.194,0,0,1,.252-.89,1.428,1.428,0,0,1,.942-.23h3.543a1.425,1.425,0,0,1,.942.23,1.194,1.194,0,0,1,.252.89v2.5a1.194,1.194,0,0,1-.252.89,1.425,1.425,0,0,1-.942.229h-3.543a1.429,1.429,0,0,1-.942-.229,1.194,1.194,0,0,1-.252-.89Zm1.12,2.726h3.693v-3h-3.693Z" fill="#fff"/>
          <path id="Trazado_2698" data-name="Trazado 2698" d="M262.779,106.368v-4.735h.9l2.267,2.864,2.22-2.864h.894v4.735H268.03v-2.926a4.92,4.92,0,0,1,.038-.506,3.615,3.615,0,0,1-.28.5l-1.809,2.367h-.224l-1.809-2.378a2.174,2.174,0,0,1-.29-.486c.019.19.028.358.028.506v2.926Z" fill="#fff"/>
          <path id="Trazado_2699" data-name="Trazado 2699" d="M276.546,106.368v-4.735h1.119v4.735Z" fill="#fff"/>
          <path id="Trazado_2700" data-name="Trazado 2700" d="M285.237,106.368v-4.735H286l3.385,2.79a5.226,5.226,0,0,1,.551.513c-.031-.44-.047-.712-.047-.817v-2.487H290.9v4.735h-.766l-3.535-2.926a3.456,3.456,0,0,1-.4-.386,7.537,7.537,0,0,1,.046.753v2.56Z" fill="#fff"/>
          <path id="Trazado_2701" data-name="Trazado 2701" d="M298.473,106.368v-4.735h1.118v4.735Z" fill="#fff"/>
          <path id="Trazado_2702" data-name="Trazado 2702" d="M307.165,106.368v-4.735h.766l3.385,2.79a5.119,5.119,0,0,1,.55.513q-.046-.66-.046-.817v-2.487h1.007v4.735h-.765l-3.535-2.926a3.459,3.459,0,0,1-.4-.386q.046.459.046.753v2.56Z" fill="#fff"/>
          <path id="Trazado_2703" data-name="Trazado 2703" d="M324.913,102.478h-3.5v3h3.5v-1.055h-1.828v-.808H326v1.633a1.194,1.194,0,0,1-.252.89,1.426,1.426,0,0,1-.941.229h-3.32a1.429,1.429,0,0,1-.942-.229,1.194,1.194,0,0,1-.252-.89v-2.5a1.194,1.194,0,0,1,.252-.89,1.428,1.428,0,0,1,.942-.23h3.32a1.459,1.459,0,0,1,.933.226,1.092,1.092,0,0,1,.26.849v.11l-1.091.192Z" fill="#fff"/>
        </g>
        <path id="Trazado_2704" data-name="Trazado 2704" d="M364.371,68.677h-7.437l-14.62,17.068,16.8,19.793h7.437l-16.8-19.793Z" fill="#fff"/>
        <path id="Trazado_2705" data-name="Trazado 2705" d="M250.982,104.2a1.363,1.363,0,1,1-1.362-1.341,1.352,1.352,0,0,1,1.362,1.341" fill="#fff"/>
        <path id="Trazado_2706" data-name="Trazado 2706" d="M162,104.362a1.363,1.363,0,1,1-1.363-1.341A1.352,1.352,0,0,1,162,104.362" fill="#fff"/>
        <rect id="Rect치ngulo_186" data-name="Rect치ngulo 186" width="1.679" height="50.241" transform="translate(85.015 56.457)" fill="#fff"/>
        <path id="Trazado_2707" data-name="Trazado 2707" d="M83.546,97.375V64.623h4.617V97.375Z" fill="#fff"/>
        <path id="Trazado_2708" data-name="Trazado 2708" d="M114.266,97.375V82.88q0-3.3-1.608-4.794t-5.2-1.491a10.723,10.723,0,0,0-3.8.711,9.527,9.527,0,0,0-3.241,1.995,7.35,7.35,0,0,0-1.772,2.363,6.412,6.412,0,0,0-.606,2.729V97.375H93.657V73.659h4.337v4.4a12.693,12.693,0,0,1,10.584-5.138q4.988,0,7.53,2.317T118.65,82.1V97.375Z" fill="#fff"/>
        <path id="Trazado_2709" data-name="Trazado 2709" d="M142.849,79.9a4.859,4.859,0,0,0-2.634-2.729,15.973,15.973,0,0,0-10.608.023q-1.958.918-1.958,2.477a2.526,2.526,0,0,0,1.376,2.34,16.531,16.531,0,0,0,5.152,1.33l3.077.459a29.9,29.9,0,0,1,6.272,1.445,6.432,6.432,0,0,1,3.077,2.179,5.977,5.977,0,0,1,.909,3.44q0,7.249-11.936,7.247-5.735,0-8.906-1.9a8.055,8.055,0,0,1-3.87-5.757h4.15q1.352,4.267,8.533,4.266a14.257,14.257,0,0,0,5.852-.963A3.011,3.011,0,0,0,143.408,91a2.5,2.5,0,0,0-1.492-2.339,19.714,19.714,0,0,0-5.549-1.376l-2.844-.413a27.433,27.433,0,0,1-6.038-1.468,6.313,6.313,0,0,1-3.008-2.225,6.119,6.119,0,0,1-.886-3.417,5.6,5.6,0,0,1,3.008-5.023q3.007-1.812,8.323-1.812,5.221,0,8.043,1.514a8.058,8.058,0,0,1,3.894,4.954Z" fill="#fff"/>
        <path id="Trazado_2710" data-name="Trazado 2710" d="M169.379,96.962a19.031,19.031,0,0,1-5.968.917q-3.964,0-5.828-1.88t-1.866-5.963V77.053h-4.709V73.659h4.709V67.192H160.1v6.468h8.579v3.394H160.1V90.4q0,3.946,4.056,3.945a14.711,14.711,0,0,0,4.522-.734Z" fill="#fff"/>
        <path id="Trazado_2711" data-name="Trazado 2711" d="M193.2,97.375V93.66a13.739,13.739,0,0,1-4.826,3.279,16.613,16.613,0,0,1-6.085,1.032q-4.71,0-7.227-1.881a6.3,6.3,0,0,1-2.518-5.367,6.076,6.076,0,0,1,3.334-5.665q3.333-1.857,10.468-2.041l6.76-.184v-.825a5.22,5.22,0,0,0-1.748-4.335q-1.748-1.4-5.431-1.4a14.1,14.1,0,0,0-5.386.826,4.452,4.452,0,0,0-2.587,2.614l-4.01-.5q1.444-6.284,12.169-6.285,5.689,0,8.463,2.248t2.774,6.881V97.375Zm-.093-11.468-6.714.184a19.75,19.75,0,0,0-7.087,1.147,3.3,3.3,0,0,0-2.238,3.119A3.431,3.431,0,0,0,178.7,93.43a8.693,8.693,0,0,0,4.709,1.055,13.033,13.033,0,0,0,4.173-.665,10.619,10.619,0,0,0,3.427-1.858,5.178,5.178,0,0,0,2.1-4.174Z" fill="#fff"/>
        <path id="Trazado_2712" data-name="Trazado 2712" d="M206.044,97.375V68.614h-13.8V64.623h32.219v3.991h-13.8V97.375Z" fill="#fff"/>
        <path id="Trazado_2713" data-name="Trazado 2713" d="M219.22,97.375V73.659h4.336v4.449a12.42,12.42,0,0,1,4.08-3.623,10.338,10.338,0,0,1,4.965-1.239,17.106,17.106,0,0,1,2.519.229l-.513,3.761a13.887,13.887,0,0,0-2.378-.229,9.943,9.943,0,0,0-3.45.55,8.392,8.392,0,0,0-2.752,1.7,6.747,6.747,0,0,0-2.424,5.138V97.375Z" fill="#fff"/>
        <path id="Trazado_2714" data-name="Trazado 2714" d="M257.268,97.375V93.66a13.754,13.754,0,0,1-4.826,3.279,16.619,16.619,0,0,1-6.085,1.032q-4.711,0-7.227-1.881a6.3,6.3,0,0,1-2.518-5.367,6.076,6.076,0,0,1,3.333-5.665q3.333-1.857,10.468-2.041l6.761-.184v-.825a5.22,5.22,0,0,0-1.748-4.335q-1.749-1.4-5.432-1.4a14.1,14.1,0,0,0-5.385.826,4.455,4.455,0,0,0-2.588,2.614l-4.01-.5q1.446-6.284,12.17-6.285,5.687,0,8.462,2.248t2.775,6.881V97.375Zm-.093-11.468-6.714.184a19.743,19.743,0,0,0-7.087,1.147,3.3,3.3,0,0,0-2.238,3.119,3.431,3.431,0,0,0,1.632,3.073,8.7,8.7,0,0,0,4.709,1.055,13.033,13.033,0,0,0,4.173-.665,10.623,10.623,0,0,0,3.428-1.858,5.178,5.178,0,0,0,2.1-4.174Z" fill="#fff"/>
        <path id="Trazado_2715" data-name="Trazado 2715" d="M288.834,97.375V93.063a10.82,10.82,0,0,1-4.43,3.692,14.363,14.363,0,0,1-6.248,1.353,13.248,13.248,0,0,1-6.365-1.49,10.625,10.625,0,0,1-4.336-4.312,13.464,13.464,0,0,1-1.562-6.629,13.742,13.742,0,0,1,1.538-6.559,11.2,11.2,0,0,1,4.43-4.541,13.388,13.388,0,0,1,6.761-1.652q6.668,0,10.164,4.587V64.623h4.384V97.375Zm0-12.523a8.22,8.22,0,0,0-2.424-5.963,7.57,7.57,0,0,0-2.868-1.812,10.763,10.763,0,0,0-3.707-.619q-4.523,0-6.924,2.34t-2.4,6.834a8.192,8.192,0,0,0,9,8.945,10.4,10.4,0,0,0,3.823-.711,9.134,9.134,0,0,0,3.124-2A7.965,7.965,0,0,0,288.2,89.3a7.5,7.5,0,0,0,.63-2.982Z" fill="#fff"/>
        <path id="Trazado_2716" data-name="Trazado 2716" d="M302.215,86.733a7.714,7.714,0,0,0,2.494,5.825,9.306,9.306,0,0,0,6.459,2.156q6.759,0,8.3-3.991h4.2q-1.958,7.385-12.682,7.385-6.155,0-9.651-3.3t-3.5-9.083a13.348,13.348,0,0,1,1.609-6.6,11.439,11.439,0,0,1,4.639-4.541,14.481,14.481,0,0,1,7.041-1.652q6.108,0,9.512,3.142t3.4,8.784v1.881Zm17.531-3.257a6.69,6.69,0,0,0-2.285-5.321,9.669,9.669,0,0,0-6.387-1.881,9.174,9.174,0,0,0-5.968,1.927,7.734,7.734,0,0,0-2.8,5.275Z" fill="#fff"/>
        <path id="Trazado_2717" data-name="Trazado 2717" d="M330.935,63.519H323.5l14.62,17.068L323.5,97.655h7.437l14.62-17.068Z" fill="#fff"/>
      </g>
    </g>
  </g>
</svg>
