<?xml version="1.0" encoding="utf-8"?>
<!-- Generator: Adobe Illustrator 23.0.0, SVG Export Plug-In . SVG Version: 6.00 Build 0)  -->
<svg version="1.1" id="Capa_1" xmlns="http://www.w3.org/2000/svg" xmlns:xlink="http://www.w3.org/1999/xlink" x="0px" y="0px"
	 viewBox="0 0 77.9 78.3" style="enable-background:new 0 0 77.9 78.3;" xml:space="preserve">
<style type="text/css">
	.st0{fill:none;stroke:#26DE81;stroke-width:2;stroke-miterlimit:10;}
	.st1{fill:none;stroke:#26DE81;stroke-width:1.5;stroke-miterlimit:10;}
</style>
<g>
	<path class="st0" d="M21.3,68.6l6.7-4.2c1.3-0.8,2.9-1.2,4.5-1l15.1,2.1c1.7,0.2,3.3-0.1,4.8-1L76,50c0.8-0.5,1.2-1.4,1-2.3l0,0
		c-0.2-1-1.1-1.7-2.1-1.7h-2.7c-0.8,0-1.7,0.2-2.4,0.7l-10.3,6.2c-1.2,0.7-2.6,1.1-4,1.1l-12.3-0.3"/>
	<path class="st0" d="M55.2,49.5l10-5.2c0.3-0.2,0.7-0.3,1.1-0.3l0,0c1.3,0,2.4,1.1,2.4,2.4v1"/>
	<path class="st0" d="M52.9,46.5l4-2.3c0.2-0.1,0.5-0.2,0.7-0.3l1.1-0.2c1-0.2,2.1,0.3,2.5,1.2l0.6,1.1"/>
	<path class="st0" d="M15.8,51.9l9.6-6.1c3.8-2.4,8.5-2.7,12.5-0.7l2.2,1.1c0.9,0.4,1.9,0.7,2.9,0.6l9.8-0.4l5.5,7"/>
	<polygon class="st0" points="13.9,46.7 24.3,77.4 6.9,77.4 3.3,46.7 	"/>
	<circle class="st0" cx="13.8" cy="71.6" r="2.5"/>
</g>
<g>
	<line class="st1" x1="43.2" y1="15.7" x2="43.2" y2="27.8"/>
	<path class="st1" d="M48,21.7h-4.8v6.1H48c1.7,0,3-1.4,3-3l0,0C51.1,23.1,49.7,21.7,48,21.7z"/>
	<path class="st1" d="M48,15.7h-4.8v6.1H48c1.7,0,3-1.4,3-3l0,0C51.1,17,49.7,15.7,48,15.7z"/>
	<line class="st1" x1="44.6" y1="13" x2="44.6" y2="15.7"/>
	<line class="st1" x1="44.6" y1="27.8" x2="44.6" y2="30.5"/>
	<line class="st1" x1="48.6" y1="13" x2="48.6" y2="15.7"/>
	<line class="st1" x1="48.6" y1="27.8" x2="48.6" y2="30.5"/>
</g>
<g>
	<circle class="st1" cx="47.1" cy="21.7" r="13.7"/>
	<circle class="st1" cx="47.1" cy="21.7" r="19"/>
	<line class="st1" x1="47.1" y1="2.8" x2="47.1" y2="5.2"/>
	<line class="st1" x1="60.5" y1="8.3" x2="58.8" y2="10"/>
	<line class="st1" x1="66.1" y1="21.7" x2="63.7" y2="21.7"/>
	<line class="st1" x1="60.5" y1="35.2" x2="58.8" y2="33.5"/>
	<line class="st1" x1="47.1" y1="40.7" x2="47.1" y2="38.3"/>
	<line class="st1" x1="33.7" y1="35.2" x2="35.4" y2="33.5"/>
	<line class="st1" x1="28.1" y1="21.7" x2="30.5" y2="21.7"/>
	<line class="st1" x1="33.7" y1="8.3" x2="35.4" y2="10"/>
</g>
</svg>
