<?xml version="1.0" encoding="utf-8"?>
<!-- Generator: Adobe Illustrator 23.0.0, SVG Export Plug-In . SVG Version: 6.00 Build 0)  -->
<svg version="1.1" id="Capa_1" xmlns="http://www.w3.org/2000/svg" xmlns:xlink="http://www.w3.org/1999/xlink" x="0px" y="0px"
	 viewBox="0 0 40.9 40.5" style="enable-background:new 0 0 40.9 40.5;" xml:space="preserve">
<style type="text/css">
	.st0{fill:none;stroke:#2E3192;stroke-miterlimit:10;}
</style>
<g>
	<line class="st0" x1="16.6" y1="14.4" x2="16.6" y2="26.5"/>
	<path class="st0" d="M21.4,20.4h-4.8v6.1h4.8c1.7,0,3-1.4,3-3l0,0C24.5,21.8,23.1,20.4,21.4,20.4z"/>
	<path class="st0" d="M21.4,14.4h-4.8v6.1h4.8c1.7,0,3-1.4,3-3l0,0C24.5,15.7,23.1,14.4,21.4,14.4z"/>
	<line class="st0" x1="18" y1="11.7" x2="18" y2="14.4"/>
	<line class="st0" x1="18" y1="26.5" x2="18" y2="29.2"/>
	<line class="st0" x1="22" y1="11.7" x2="22" y2="14.4"/>
	<line class="st0" x1="22" y1="26.5" x2="22" y2="29.2"/>
</g>
<g>
	<circle class="st0" cx="20.5" cy="20.4" r="13.7"/>
	<circle class="st0" cx="20.5" cy="20.4" r="19"/>
	<line class="st0" x1="20.5" y1="1.5" x2="20.5" y2="3.9"/>
	<line class="st0" x1="33.9" y1="7" x2="32.2" y2="8.7"/>
	<line class="st0" x1="39.5" y1="20.4" x2="37.1" y2="20.4"/>
	<line class="st0" x1="33.9" y1="33.9" x2="32.2" y2="32.2"/>
	<line class="st0" x1="20.5" y1="39.4" x2="20.5" y2="37"/>
	<line class="st0" x1="7.1" y1="33.9" x2="8.8" y2="32.2"/>
	<line class="st0" x1="1.5" y1="20.4" x2="3.9" y2="20.4"/>
	<line class="st0" x1="7.1" y1="7" x2="8.8" y2="8.7"/>
</g>
</svg>
