<?xml version="1.0" encoding="utf-8"?>
<!-- Generator: Adobe Illustrator 23.0.0, SVG Export Plug-In . SVG Version: 6.00 Build 0)  -->
<svg version="1.1" id="Capa_1" xmlns="http://www.w3.org/2000/svg" xmlns:xlink="http://www.w3.org/1999/xlink" x="0px" y="0px"
	 viewBox="0 0 512 512" style="enable-background:new 0 0 512 512;" xml:space="preserve">
<style type="text/css">
	.st0{fill:#FFFFFF;}
</style>
<path class="st0" d="M412,142V0H100v74.8l-14-14L64.8,82l50.2,50.2L165.2,82L144,60.8l-14,14V30h252v112c-56.3,7.4-100,55.7-100,114
	c0,63.4,51.6,115,115,115s115-51.6,115-115C512,197.7,468.3,149.4,412,142z M397,341c-46.9,0-85-38.1-85-85s38.1-85,85-85
	s85,38.1,85,85S443.9,341,397,341z"/>
<path class="st0" d="M424.2,253.8c-2.2-1.9-4.8-3.6-7.9-4.9c-3.1-1.4-6.6-2.7-10.4-3.8c-0.9-0.2-1.7-0.5-2.5-0.8
	c-0.8-0.3-1.5-0.5-2.2-0.6v-10.5c2.2,0.4,4.4,1,6.5,1.7c2.1,0.7,4.1,1.5,5.8,2.4c2,0.9,3.9,1.9,5.6,3l9.9-18.8
	c-1.6-0.8-3.4-1.6-5.4-2.5c-2-0.9-4.1-1.7-6.3-2.6c-2.2-0.8-4.6-1.5-7-2.2c-2.4-0.6-4.9-1.1-7.5-1.4V201h-9.4v11.8
	c-3.7,0.4-7.1,1.3-10.4,2.7s-6.1,3.3-8.5,5.6s-4.3,5.1-5.8,8.3c-1.4,3.2-2.1,6.9-2.1,11.1c0,3,0.4,5.7,1.2,8
	c0.8,2.3,2.1,4.4,3.8,6.2c1.7,1.8,3.9,3.5,6.6,4.9s5.8,2.8,9.5,4c2.4,0.9,4.8,1.6,7.3,2.2v10.3c-2.8-0.4-5.6-1.1-8.3-2
	c-2.7-1-5.1-2-7.1-3c-2.4-1.2-4.7-2.4-6.8-3.7l-9.9,19.9c4.2,2.5,9,4.5,14.3,6.2c5.3,1.6,10.7,2.7,16.1,3.1V311h9.4v-14.1
	c3.6-0.2,7.1-0.9,10.4-1.9c3.4-1,6.4-2.6,9-4.7s4.7-4.7,6.3-7.9c1.6-3.2,2.4-7.1,2.4-11.7c0-3.9-0.6-7.2-1.8-9.9
	C428,258.1,426.4,255.8,424.2,253.8z M395.1,241.7c-1.6-0.6-2.7-1.3-3.5-2s-1.2-1.7-1.2-2.9c0-2.3,1.6-3.6,4.7-4V241.7z
	 M405.2,275.3c-0.8,0.6-2.1,1-4,1.2v-8.6c1.6,0.6,2.8,1.3,3.8,2.2c0.9,0.8,1.4,1.8,1.4,2.9C406.3,273.9,405.9,274.7,405.2,275.3z"/>
<path class="st0" d="M346.8,430l21.2,21.2l14-14V482H130V371h100V141H0v230h100v141h312v-74.8l14,14l21.2-21.2L397,379.8L346.8,430z
	 M90,171h50v50.7l-25-12.5l-25,12.5V171z M30,171h30v99.3l55-27.5l55,27.5V171h30v170H30V171z"/>
</svg>
