<?xml version="1.0" encoding="utf-8"?>
<!-- Generator: Adobe Illustrator 23.0.0, SVG Export Plug-In . SVG Version: 6.00 Build 0)  -->
<svg version="1.1" id="Capa_1" xmlns="http://www.w3.org/2000/svg" xmlns:xlink="http://www.w3.org/1999/xlink" x="0px" y="0px"
	 viewBox="0 0 512 512" style="enable-background:new 0 0 512 512;" xml:space="preserve">
<style type="text/css">
	.st0{fill:#FFFFFF;}
</style>
<path class="st0" d="M68.9,261.8H7.6c-4.2,0-7.6,3.4-7.6,7.6v220.2c0,4.2,3.4,7.6,7.6,7.6h61.3c4.2,0,7.6-3.4,7.6-7.6v-69.5
	c0-4.2-3.4-7.6-7.6-7.6s-7.6,3.4-7.6,7.6V482H15.2V277h46.1v117.8c0,4.2,3.4,7.6,7.6,7.6s7.6-3.4,7.6-7.6V269.4
	C76.5,265.2,73.1,261.8,68.9,261.8z"/>
<path class="st0" d="M177.8,332.6h-61.3c-4.2,0-7.6,3.4-7.6,7.6v149.4c0,4.2,3.4,7.6,7.6,7.6h61.3c4.2,0,7.6-3.4,7.6-7.6V340.2
	C185.4,336,182,332.6,177.8,332.6z M170.2,482h-46.1V347.8h46.1V482z"/>
<path class="st0" d="M286.7,214.6h-61.3c-4.2,0-7.6,3.4-7.6,7.6v267.4c0,4.2,3.4,7.6,7.6,7.6h61.3c4.2,0,7.6-3.4,7.6-7.6V222.2
	C294.3,218,290.9,214.6,286.7,214.6z M279.1,482h-46.1V229.8h46.1V482z"/>
<path class="st0" d="M395.5,250h-61.3c-4.2,0-7.6,3.4-7.6,7.6v232c0,4.2,3.4,7.6,7.6,7.6h61.3c4.2,0,7.6-3.4,7.6-7.6v-232
	C403.1,253.4,399.7,250,395.5,250z M387.9,482h-46.1V265.2h46.1V482z"/>
<path class="st0" d="M504.4,143.9h-61.3c-4.2,0-7.6,3.4-7.6,7.6v100.4c0,4.2,3.4,7.6,7.6,7.6s7.6-3.4,7.6-7.6v-92.8h46.1V482h-46.1
	V277.2c0-4.2-3.4-7.6-7.6-7.6s-7.6,3.4-7.6,7.6v212.4c0,4.2,3.4,7.6,7.6,7.6h61.3c4.2,0,7.6-3.4,7.6-7.6V151.5
	C512,147.3,508.6,143.9,504.4,143.9z"/>
<path class="st0" d="M452.2,84.9c6.1,4.2,13.6,6.7,21.5,6.7c21.1,0,38.3-17.2,38.3-38.3c0-21.1-17.2-38.3-38.3-38.3
	s-38.3,17.2-38.3,38.3c0,7.6,2.3,14.7,6.1,20.7l-55.2,53.8c-6.1-4.2-13.6-6.7-21.5-6.7c-14.3,0-26.7,7.8-33.3,19.4L294,128.4
	c0.2-1.4,0.3-2.9,0.3-4.4c0-21.1-17.2-38.3-38.3-38.3c-21.1,0-38.3,17.2-38.3,38.3c0,8.4,2.7,16.1,7.3,22.4l-58,62.8
	c-5.8-3.5-12.6-5.6-19.8-5.6c-10.7,0-20.3,4.4-27.3,11.5l-46-29.9c1.7-4.4,2.7-9.1,2.7-14.1c0-21.1-17.2-38.3-38.3-38.3
	C17.2,132.9,0,150.1,0,171.2c0,21.1,17.2,38.3,38.3,38.3c10.7,0,20.3-4.4,27.3-11.5l46,29.9c-1.7,4.4-2.7,9.1-2.7,14.1
	c0,21.1,17.2,38.3,38.3,38.3c21.1,0,38.3-17.2,38.3-38.3c0-8.4-2.7-16.1-7.3-22.4l58-62.8c5.8,3.5,12.6,5.6,19.8,5.6
	c14.3,0,26.7-7.8,33.3-19.4l37.6,12.2c-0.2,1.4-0.3,2.9-0.3,4.4c0,21.1,17.2,38.3,38.3,38.3s38.3-17.2,38.3-38.3
	c0-7.6-2.3-14.7-6.1-20.7L452.2,84.9z M38.3,194.3c-12.7,0-23.1-10.3-23.1-23.1s10.3-23.1,23.1-23.1s23.1,10.3,23.1,23.1
	S51,194.3,38.3,194.3z M147.1,265c-12.7,0-23.1-10.3-23.1-23.1s10.3-23.1,23.1-23.1s23.1,10.3,23.1,23.1S159.8,265,147.1,265z
	 M256,147.1c-12.7,0-23.1-10.3-23.1-23.1S243.3,101,256,101s23.1,10.3,23.1,23.1S268.7,147.1,256,147.1z M473.7,30.2
	c12.7,0,23.1,10.3,23.1,23.1s-10.3,23.1-23.1,23.1S450.7,66,450.7,53.3S461,30.2,473.7,30.2z M364.9,182.5
	c-12.7,0-23.1-10.3-23.1-23.1s10.3-23.1,23.1-23.1s23.1,10.3,23.1,23.1S377.6,182.5,364.9,182.5z"/>
</svg>
