<svg xmlns="http://www.w3.org/2000/svg" width="19.449" height="19.087" viewBox="0 0 19.449 19.087">
  <path id="in" d="M357.554,9064.867a1.406,1.406,0,0,1-1.438-1.37v-16.348a1.4,1.4,0,0,1,1.438-1.369h16.573a1.4,1.4,0,0,1,1.438,1.369V9063.5a1.406,1.406,0,0,1-1.438,1.37Zm12.112-7.722v4.611H372.6v-4.941c0-2.647-1.449-3.881-3.381-3.881a2.93,2.93,0,0,0-2.648,1.424v-1.222h-2.937c.039.811,0,8.62,0,8.62h2.937v-4.813a1.915,1.915,0,0,1,.1-.7,1.606,1.606,0,0,1,1.508-1.047C369.241,9055.2,369.666,9055.987,369.666,9057.146Zm-10.592,4.611h2.937v-8.62h-2.937Zm-.173-11.284a1.5,1.5,0,0,0,1.622,1.488h.02a1.5,1.5,0,1,0-1.643-1.488Zm7.655,3.916a.142.142,0,0,1,.018-.03v.03Z" transform="translate(-356.117 -9045.78)" fill="#fff"/>
</svg>
