<?xml version="1.0" encoding="utf-8"?>
<!-- Generator: Adobe Illustrator 23.0.0, SVG Export Plug-In . SVG Version: 6.00 Build 0)  -->
<svg version="1.1" id="Capa_1" xmlns="http://www.w3.org/2000/svg" xmlns:xlink="http://www.w3.org/1999/xlink" x="0px" y="0px"
	 viewBox="0 0 496 496" style="enable-background:new 0 0 496 496;" xml:space="preserve">
<style type="text/css">
	.st0{fill:#FFFFFF;}
</style>
<g>
	<g>
		<path class="st0" d="M496,248C496,111.3,384.7,0,248,0c-42.9,0-84.6,11.1-121.7,32H96V0H48v101.5C16.6,144.2,0,194.8,0,248
			c0,136.8,111.3,248,248,248c30.5,0,60.2-5.5,88.4-16.2C352.5,490,371.6,496,392,496c24.9,0,49.1-9,67.9-25.2l-10.5-12.1
			c-16,13.8-36.4,21.4-57.5,21.4c-48.5,0-88-39.5-88-88s39.5-88,88-88s88,39.5,88,88c0,20.3-6.7,39.3-19.4,55.1l12.5,10
			c14.8-18.4,22.9-41.5,22.9-65.2c0-20.5-6-39.5-16.3-55.6C490.5,308.2,496,278.5,496,248z M128,80h16v16v96h-16V80z M96,48h16v16
			v128H96V48z M64,16h16v16v160H64V16z M240,479.8C118.4,475.6,20.4,377.6,16.2,256H240V479.8z M240,240H16.3
			c1.3-38.9,12.1-76.2,31.7-109.3V208h32h16h16h16h16h16h16h16h32v-80h-32V96h-32V64h-32V49.5c33.8-20.5,72.3-31.9,112-33.3V240z
			 M160,192v-80h16v16v64H160z M192,192v-48h16v48H192z M479.8,240h-68.5l58.8-58.8C475.8,199.9,479.1,219.6,479.8,240z
			 M439.5,117.2l-89.4,89.4l11.3,11.3l86.8-86.8c6.2,10.6,11.6,21.7,16.1,33.3L388.7,240h-49.4l10.3-10.3l-11.3-11.3L316.7,240
			h-49.4L417.5,89.8C425.5,98.4,432.8,107.5,439.5,117.2z M256,16.2c20.4,0.7,40.1,4,58.8,9.7L256,84.7V16.2z M256,179.3l97.2-97.2
			l-11.3-11.3L256,156.7v-49.4l75.6-75.6c11.6,4.5,22.7,9.9,33.3,16.1L352,60.6L363.4,72l15.4-15.4c9.7,6.6,18.8,14,27.4,22
			L256,228.7V179.3z M392,288c-57.3,0-104,46.7-104,104c0,30.1,12.9,57.1,33.4,76.2c-21.1,7-43,10.9-65.4,11.7V256h223.8
			c-0.8,22.4-4.7,44.3-11.7,65.4C449.1,300.9,422.1,288,392,288z"/>
	</g>
</g>
<g>
	<g>
		
			<rect x="84.2" y="336" transform="matrix(0.7071 -0.7071 0.7071 0.7071 -198.6681 208.277)" class="st0" width="135.8" height="16"/>
	</g>
</g>
<g>
	<g>
		<path class="st0" d="M184,352c-13.2,0-24,10.8-24,24s10.8,24,24,24s24-10.8,24-24S197.2,352,184,352z M184,384c-4.4,0-8-3.6-8-8
			s3.6-8,8-8s8,3.6,8,8S188.4,384,184,384z"/>
	</g>
</g>
<g>
	<g>
		<path class="st0" d="M120,288c-13.2,0-24,10.8-24,24s10.8,24,24,24s24-10.8,24-24S133.2,288,120,288z M120,320c-4.4,0-8-3.6-8-8
			s3.6-8,8-8s8,3.6,8,8S124.4,320,120,320z"/>
	</g>
</g>
<g>
	<g>
		<path class="st0" d="M392,384c-8.8,0-16-7.2-16-16s7.2-16,16-16s16,7.2,16,16h16c0-14.9-10.2-27.3-24-30.9V320h-16v17.1
			c-13.8,3.6-24,16-24,30.9c0,17.6,14.4,32,32,32c8.8,0,16,7.2,16,16s-7.2,16-16,16s-16-7.2-16-16h-16c0,14.9,10.2,27.3,24,30.9V464
			h16v-17.1c13.8-3.6,24-16,24-30.9C424,398.4,409.6,384,392,384z"/>
	</g>
</g>
<g>
	<g>
		<rect x="448" y="384" class="st0" width="16" height="16"/>
	</g>
</g>
<g>
	<g>
		<rect x="320" y="384" class="st0" width="16" height="16"/>
	</g>
</g>
</svg>
