<?xml version="1.0" encoding="utf-8"?>
<!-- Generator: Adobe Illustrator 23.0.0, SVG Export Plug-In . SVG Version: 6.00 Build 0)  -->
<svg version="1.1" id="Capa_1" xmlns="http://www.w3.org/2000/svg" xmlns:xlink="http://www.w3.org/1999/xlink" x="0px" y="0px"
	 viewBox="0 0 78.6 79" style="enable-background:new 0 0 78.6 79;" xml:space="preserve">
<style type="text/css">
	.st0{fill:none;stroke:#541079;stroke-width:1.5;stroke-miterlimit:10;}
	.st1{fill:none;stroke:#541079;stroke-width:1.5;stroke-linecap:round;stroke-miterlimit:10;}
	.st2{fill:#FFFFFF;stroke:#541079;stroke-miterlimit:10;}
</style>
<g>
	<path class="st0" d="M58.2,43c0.2-1.8-0.1-3.7-0.7-5.5c-1.8-4.9-6.2-8.6-11.4-9c-4.8-0.4-9.1,1.8-11.7,5.3c-2-1.1-4.2-1.7-6.6-1.7
		c-0.6,0-1.2,0-1.8,0.1v6.9c0,0.4-0.5,0.6-0.8,0.3l-1.6-1.6c-1.1-1.1-1.9-2.6-2.1-4.2c-3.2,1.7-5.7,4.8-6.7,8.4
		C8.8,42.3,4,47.2,4,53.3c0,6.2,5,11.3,11.3,11.3h8.2c-1.5-3-2.1-6.3-2.1-9.8l-0.1-12.3l4.2-0.2c2.8,0,5.3-1.2,7.3-3.2l2.7-2.7
		l2.7,2.7c2,2,4.7,3.1,7.5,3.1h3.9v12.6c0,3.5-0.8,6.8-2.4,9.8H56c6,0,10.9-4.9,10.9-10.9C66.8,48.4,63.1,44,58.2,43z"/>
	<path class="st1" d="M56.9,46.7c3.7,0.2,6.6,3.3,6.6,7c0,3.9-3.1,7-7,7"/>
	<path class="st1" d="M7.3,53.4c0-4.1,3.4-7.5,7.5-7.5"/>
</g>
<g>
	<path class="st0" d="M25,4.2c0.3-0.4,0.9-0.2,0.9,0.3v10.1c-0.3-0.2-0.7-0.3-1.1-0.3h-2.5c-0.4,0-0.8,0.1-1.1,0.3v-2.9
		c0-1.7,0.6-3.4,1.7-4.8L25,4.2z"/>
	<path class="st0" d="M25.9,28.8v10.3c0,0.4-0.5,0.6-0.8,0.3l-1.6-1.6c-1.1-1.1-1.9-2.6-2.1-4.2c-0.1-0.4-0.1-0.8-0.1-1.3v-3.6
		c0.3,0.2,0.7,0.3,1.1,0.3h2.5C25.2,29.2,25.6,29,25.9,28.8z"/>
	<path class="st0" d="M20.4,19.2v5h-2.7c-1.4,0-2.5-1.1-2.5-2.5c0-0.7,0.3-1.3,0.7-1.8c0.5-0.4,1.1-0.7,1.8-0.7H20.4z"/>
	<path class="st0" d="M74.7,21.7c0,0.7-0.3,1.3-0.7,1.8c-0.4,0.4-1.1,0.7-1.8,0.7H26.7v-5h45.5C73.6,19.2,74.7,20.3,74.7,21.7z"/>
	<line class="st0" x1="30.3" y1="19.2" x2="30.3" y2="24.2"/>
	<path class="st0" d="M26.7,16.1v11.1c0,0.7-0.3,1.3-0.8,1.6c-0.3,0.2-0.7,0.3-1.1,0.3h-2.5c-0.4,0-0.8-0.1-1.1-0.3
		c-0.5-0.3-0.8-0.9-0.8-1.6V16.1c0-0.7,0.3-1.3,0.8-1.6c0.3-0.2,0.7-0.3,1.1-0.3h2.5c0.4,0,0.8,0.1,1.1,0.3
		C26.4,14.9,26.7,15.5,26.7,16.1z"/>
</g>
<path class="st0" d="M49.4,42.3v12.6c0,3.5-0.8,6.8-2.4,9.8c-0.5,0.9-1,1.7-1.5,2.5c-2.5,3.5-6,6.3-10.2,7.8
	c-5.2-1.9-9.3-5.6-11.8-10.3c-1.5-3-2.4-6.3-2.4-9.8V42.3H25c2.8,0,5.5-1.1,7.5-3.1l2.7-2.7l2.7,2.7c2,2,4.7,3.1,7.5,3.1H49.4z"/>
<g>
	<line class="st0" x1="30.5" y1="48.2" x2="30.5" y2="63.2"/>
	<path class="st0" d="M36.4,55.7h-5.9v7.5h5.9c2.1,0,3.7-1.7,3.7-3.7l0,0C40.2,57.4,38.5,55.7,36.4,55.7z"/>
	<path class="st0" d="M36.4,48.2h-5.9v7.5h5.9c2.1,0,3.7-1.7,3.7-3.7l0,0C40.2,49.9,38.5,48.2,36.4,48.2z"/>
	<line class="st0" x1="32.3" y1="44.9" x2="32.3" y2="48.2"/>
	<line class="st0" x1="32.3" y1="63.2" x2="32.3" y2="66.5"/>
	<line class="st0" x1="37.2" y1="44.9" x2="37.2" y2="48.2"/>
	<line class="st0" x1="37.2" y1="63.2" x2="37.2" y2="66.5"/>
</g>
<circle class="st2" cx="25.5" cy="55.3" r="1.1"/>
<circle class="st2" cx="45.2" cy="55.3" r="1.1"/>
</svg>
